<?xml version="1.0" encoding="UTF-8" standalone="no"?>
<!DOCTYPE svg PUBLIC "-//W3C//DTD SVG 1.1//EN"
 "http://www.w3.org/Graphics/SVG/1.1/DTD/svg11.dtd">
<!-- Generated by graphviz version 2.43.0 (0)
 -->
<!-- Title: %3 Pages: 1 -->
<svg width="825pt" height="154pt"
 viewBox="0.00 0.00 825.00 154.00" xmlns="http://www.w3.org/2000/svg" xmlns:xlink="http://www.w3.org/1999/xlink">
<g id="graph0" class="graph" transform="scale(1 1) rotate(0) translate(4 150)">
<title>%3</title>
<polygon fill="white" stroke="transparent" points="-4,4 -4,-150 821,-150 821,4 -4,4"/>
<!-- 136985051646560 -->
<g id="node1" class="node">
<title>136985051646560</title>
<polygon fill="none" stroke="black" points="475,-54.5 475,-90.5 581,-90.5 581,-54.5 475,-54.5"/>
<text text-anchor="middle" x="488" y="-68.8" font-family="Times,serif" font-size="14.00">d</text>
<polyline fill="none" stroke="black" points="501,-54.5 501,-90.5 "/>
<text text-anchor="middle" x="541" y="-68.8" font-family="Times,serif" font-size="14.00">data: 4.0</text>
</g>
<!-- 136985051243808* -->
<g id="node6" class="node">
<title>136985051243808*</title>
<ellipse fill="none" stroke="black" cx="644" cy="-99.5" rx="27" ry="18"/>
<text text-anchor="middle" x="644" y="-95.8" font-family="Times,serif" font-size="14.00">*</text>
</g>
<!-- 136985051646560&#45;&gt;136985051243808* -->
<g id="edge8" class="edge">
<title>136985051646560&#45;&gt;136985051243808*</title>
<path fill="none" stroke="black" d="M581.33,-84.89C590.48,-87.06 599.8,-89.27 608.33,-91.29"/>
<polygon fill="black" stroke="black" points="607.73,-94.74 618.27,-93.64 609.34,-87.93 607.73,-94.74"/>
</g>
<!-- 136985051646560+ -->
<g id="node2" class="node">
<title>136985051646560+</title>
<ellipse fill="none" stroke="black" cx="412" cy="-72.5" rx="27" ry="18"/>
<text text-anchor="middle" x="412" y="-68.8" font-family="Times,serif" font-size="14.00">+</text>
</g>
<!-- 136985051646560+&#45;&gt;136985051646560 -->
<g id="edge1" class="edge">
<title>136985051646560+&#45;&gt;136985051646560</title>
<path fill="none" stroke="black" d="M439.15,-72.5C446.89,-72.5 455.71,-72.5 464.71,-72.5"/>
<polygon fill="black" stroke="black" points="464.9,-76 474.9,-72.5 464.9,-69 464.9,-76"/>
</g>
<!-- 136985051740816 -->
<g id="node3" class="node">
<title>136985051740816</title>
<polygon fill="none" stroke="black" points="0,-55.5 0,-91.5 110,-91.5 110,-55.5 0,-55.5"/>
<text text-anchor="middle" x="13" y="-69.8" font-family="Times,serif" font-size="14.00">b</text>
<polyline fill="none" stroke="black" points="26,-55.5 26,-91.5 "/>
<text text-anchor="middle" x="68" y="-69.8" font-family="Times,serif" font-size="14.00">data: &#45;3.0</text>
</g>
<!-- 136985051645936* -->
<g id="node10" class="node">
<title>136985051645936*</title>
<ellipse fill="none" stroke="black" cx="173" cy="-45.5" rx="27" ry="18"/>
<text text-anchor="middle" x="173" y="-41.8" font-family="Times,serif" font-size="14.00">*</text>
</g>
<!-- 136985051740816&#45;&gt;136985051645936* -->
<g id="edge4" class="edge">
<title>136985051740816&#45;&gt;136985051645936*</title>
<path fill="none" stroke="black" d="M110.26,-60.4C119.49,-58.18 128.84,-55.92 137.37,-53.86"/>
<polygon fill="black" stroke="black" points="138.42,-57.21 147.32,-51.46 136.78,-50.4 138.42,-57.21"/>
</g>
<!-- 136985051646656 -->
<g id="node4" class="node">
<title>136985051646656</title>
<polygon fill="none" stroke="black" points="475,-109.5 475,-145.5 581,-145.5 581,-109.5 475,-109.5"/>
<text text-anchor="middle" x="486" y="-123.8" font-family="Times,serif" font-size="14.00">f</text>
<polyline fill="none" stroke="black" points="497,-109.5 497,-145.5 "/>
<text text-anchor="middle" x="539" y="-123.8" font-family="Times,serif" font-size="14.00">data: &#45;2.0</text>
</g>
<!-- 136985051646656&#45;&gt;136985051243808* -->
<g id="edge5" class="edge">
<title>136985051646656&#45;&gt;136985051243808*</title>
<path fill="none" stroke="black" d="M581.33,-114.65C590.48,-112.4 599.8,-110.11 608.33,-108.02"/>
<polygon fill="black" stroke="black" points="609.39,-111.36 618.27,-105.57 607.72,-104.56 609.39,-111.36"/>
</g>
<!-- 136985051243808 -->
<g id="node5" class="node">
<title>136985051243808</title>
<polygon fill="none" stroke="black" points="707,-81.5 707,-117.5 817,-117.5 817,-81.5 707,-81.5"/>
<text text-anchor="middle" x="720" y="-95.8" font-family="Times,serif" font-size="14.00">L</text>
<polyline fill="none" stroke="black" points="733,-81.5 733,-117.5 "/>
<text text-anchor="middle" x="775" y="-95.8" font-family="Times,serif" font-size="14.00">data: &#45;8.0</text>
</g>
<!-- 136985051243808*&#45;&gt;136985051243808 -->
<g id="edge2" class="edge">
<title>136985051243808*&#45;&gt;136985051243808</title>
<path fill="none" stroke="black" d="M671.03,-99.5C678.7,-99.5 687.45,-99.5 696.42,-99.5"/>
<polygon fill="black" stroke="black" points="696.58,-103 706.58,-99.5 696.58,-96 696.58,-103"/>
</g>
<!-- 136985051741488 -->
<g id="node7" class="node">
<title>136985051741488</title>
<polygon fill="none" stroke="black" points="2.5,-0.5 2.5,-36.5 107.5,-36.5 107.5,-0.5 2.5,-0.5"/>
<text text-anchor="middle" x="15" y="-14.8" font-family="Times,serif" font-size="14.00">a</text>
<polyline fill="none" stroke="black" points="27.5,-0.5 27.5,-36.5 "/>
<text text-anchor="middle" x="67.5" y="-14.8" font-family="Times,serif" font-size="14.00">data: 2.0</text>
</g>
<!-- 136985051741488&#45;&gt;136985051645936* -->
<g id="edge9" class="edge">
<title>136985051741488&#45;&gt;136985051645936*</title>
<path fill="none" stroke="black" d="M107.55,-30.5C117.69,-32.86 128.08,-35.28 137.49,-37.47"/>
<polygon fill="black" stroke="black" points="136.71,-40.88 147.25,-39.74 138.3,-34.06 136.71,-40.88"/>
</g>
<!-- 136985051645408 -->
<g id="node8" class="node">
<title>136985051645408</title>
<polygon fill="none" stroke="black" points="236,-82.5 236,-118.5 349,-118.5 349,-82.5 236,-82.5"/>
<text text-anchor="middle" x="248" y="-96.8" font-family="Times,serif" font-size="14.00">c</text>
<polyline fill="none" stroke="black" points="260,-82.5 260,-118.5 "/>
<text text-anchor="middle" x="304.5" y="-96.8" font-family="Times,serif" font-size="14.00">data: 10.0</text>
</g>
<!-- 136985051645408&#45;&gt;136985051646560+ -->
<g id="edge6" class="edge">
<title>136985051645408&#45;&gt;136985051646560+</title>
<path fill="none" stroke="black" d="M349.15,-87.24C358.43,-85.03 367.81,-82.79 376.37,-80.75"/>
<polygon fill="black" stroke="black" points="377.41,-84.1 386.33,-78.38 375.79,-77.29 377.41,-84.1"/>
</g>
<!-- 136985051645936 -->
<g id="node9" class="node">
<title>136985051645936</title>
<polygon fill="none" stroke="black" points="238,-27.5 238,-63.5 347,-63.5 347,-27.5 238,-27.5"/>
<text text-anchor="middle" x="250.5" y="-41.8" font-family="Times,serif" font-size="14.00">e</text>
<polyline fill="none" stroke="black" points="263,-27.5 263,-63.5 "/>
<text text-anchor="middle" x="305" y="-41.8" font-family="Times,serif" font-size="14.00">data: &#45;6.0</text>
</g>
<!-- 136985051645936&#45;&gt;136985051646560+ -->
<g id="edge7" class="edge">
<title>136985051645936&#45;&gt;136985051646560+</title>
<path fill="none" stroke="black" d="M347.09,-57.81C357.03,-60.1 367.17,-62.43 376.35,-64.54"/>
<polygon fill="black" stroke="black" points="375.73,-67.99 386.26,-66.81 377.3,-61.16 375.73,-67.99"/>
</g>
<!-- 136985051645936*&#45;&gt;136985051645936 -->
<g id="edge3" class="edge">
<title>136985051645936*&#45;&gt;136985051645936</title>
<path fill="none" stroke="black" d="M200.08,-45.5C208.31,-45.5 217.79,-45.5 227.47,-45.5"/>
<polygon fill="black" stroke="black" points="227.58,-49 237.58,-45.5 227.58,-42 227.58,-49"/>
</g>
</g>
</svg>
