<?xml version="1.0" encoding="UTF-8" standalone="no"?>
<!DOCTYPE svg PUBLIC "-//W3C//DTD SVG 1.1//EN"
 "http://www.w3.org/Graphics/SVG/1.1/DTD/svg11.dtd">
<!-- Generated by graphviz version 2.43.0 (0)
 -->
<!-- Title: %3 Pages: 1 -->
<svg width="1154pt" height="128pt"
 viewBox="0.00 0.00 1154.00 128.00" xmlns="http://www.w3.org/2000/svg" xmlns:xlink="http://www.w3.org/1999/xlink">
<g id="graph0" class="graph" transform="scale(1 1) rotate(0) translate(4 124)">
<title>%3</title>
<polygon fill="white" stroke="transparent" points="-4,4 -4,-124 1150,-124 1150,4 -4,4"/>
<!-- 124376433223712 -->
<g id="node1" class="node">
<title>124376433223712</title>
<polygon fill="none" stroke="black" points="950,-27.5 950,-63.5 1146,-63.5 1146,-27.5 950,-27.5"/>
<text text-anchor="middle" x="963" y="-41.8" font-family="Times,serif" font-size="14.00">L</text>
<polyline fill="none" stroke="black" points="976,-27.5 976,-63.5 "/>
<text text-anchor="middle" x="1020.5" y="-41.8" font-family="Times,serif" font-size="14.00">data: 20.0</text>
<polyline fill="none" stroke="black" points="1065,-27.5 1065,-63.5 "/>
<text text-anchor="middle" x="1105.5" y="-41.8" font-family="Times,serif" font-size="14.00">grad: 1.0</text>
</g>
<!-- 124376433223712* -->
<g id="node2" class="node">
<title>124376433223712*</title>
<ellipse fill="none" stroke="black" cx="887" cy="-45.5" rx="27" ry="18"/>
<text text-anchor="middle" x="887" y="-41.8" font-family="Times,serif" font-size="14.00">*</text>
</g>
<!-- 124376433223712*&#45;&gt;124376433223712 -->
<g id="edge1" class="edge">
<title>124376433223712*&#45;&gt;124376433223712</title>
<path fill="none" stroke="black" d="M914.26,-45.5C921.77,-45.5 930.46,-45.5 939.72,-45.5"/>
<polygon fill="black" stroke="black" points="939.97,-49 949.97,-45.5 939.97,-42 939.97,-49"/>
</g>
<!-- 124376437885488 -->
<g id="node3" class="node">
<title>124376437885488</title>
<polygon fill="none" stroke="black" points="317,-83.5 317,-119.5 511,-119.5 511,-83.5 317,-83.5"/>
<text text-anchor="middle" x="329" y="-97.8" font-family="Times,serif" font-size="14.00">c</text>
<polyline fill="none" stroke="black" points="341,-83.5 341,-119.5 "/>
<text text-anchor="middle" x="385.5" y="-97.8" font-family="Times,serif" font-size="14.00">data: 10.0</text>
<polyline fill="none" stroke="black" points="430,-83.5 430,-119.5 "/>
<text text-anchor="middle" x="470.5" y="-97.8" font-family="Times,serif" font-size="14.00">grad: 0.0</text>
</g>
<!-- 124376432876896+ -->
<g id="node7" class="node">
<title>124376432876896+</title>
<ellipse fill="none" stroke="black" cx="574" cy="-73.5" rx="27" ry="18"/>
<text text-anchor="middle" x="574" y="-69.8" font-family="Times,serif" font-size="14.00">+</text>
</g>
<!-- 124376437885488&#45;&gt;124376432876896+ -->
<g id="edge8" class="edge">
<title>124376437885488&#45;&gt;124376432876896+</title>
<path fill="none" stroke="black" d="M511.01,-84.49C520.35,-82.83 529.37,-81.23 537.49,-79.79"/>
<polygon fill="black" stroke="black" points="538.37,-83.19 547.6,-78 537.15,-76.3 538.37,-83.19"/>
</g>
<!-- 124376437883952 -->
<g id="node4" class="node">
<title>124376437883952</title>
<polygon fill="none" stroke="black" points="2.5,-56.5 2.5,-92.5 188.5,-92.5 188.5,-56.5 2.5,-56.5"/>
<text text-anchor="middle" x="15" y="-70.8" font-family="Times,serif" font-size="14.00">a</text>
<polyline fill="none" stroke="black" points="27.5,-56.5 27.5,-92.5 "/>
<text text-anchor="middle" x="67.5" y="-70.8" font-family="Times,serif" font-size="14.00">data: 2.0</text>
<polyline fill="none" stroke="black" points="107.5,-56.5 107.5,-92.5 "/>
<text text-anchor="middle" x="148" y="-70.8" font-family="Times,serif" font-size="14.00">grad: 0.0</text>
</g>
<!-- 124376432873920* -->
<g id="node10" class="node">
<title>124376432873920*</title>
<ellipse fill="none" stroke="black" cx="254" cy="-46.5" rx="27" ry="18"/>
<text text-anchor="middle" x="254" y="-42.8" font-family="Times,serif" font-size="14.00">*</text>
</g>
<!-- 124376437883952&#45;&gt;124376432873920* -->
<g id="edge9" class="edge">
<title>124376437883952&#45;&gt;124376432873920*</title>
<path fill="none" stroke="black" d="M188.89,-57.97C199.17,-56.13 209.11,-54.35 217.97,-52.77"/>
<polygon fill="black" stroke="black" points="218.6,-56.21 227.83,-51 217.37,-49.32 218.6,-56.21"/>
</g>
<!-- 124376437886112 -->
<g id="node5" class="node">
<title>124376437886112</title>
<polygon fill="none" stroke="black" points="0,-1.5 0,-37.5 191,-37.5 191,-1.5 0,-1.5"/>
<text text-anchor="middle" x="13" y="-15.8" font-family="Times,serif" font-size="14.00">b</text>
<polyline fill="none" stroke="black" points="26,-1.5 26,-37.5 "/>
<text text-anchor="middle" x="68" y="-15.8" font-family="Times,serif" font-size="14.00">data: &#45;3.0</text>
<polyline fill="none" stroke="black" points="110,-1.5 110,-37.5 "/>
<text text-anchor="middle" x="150.5" y="-15.8" font-family="Times,serif" font-size="14.00">grad: 0.0</text>
</g>
<!-- 124376437886112&#45;&gt;124376432873920* -->
<g id="edge4" class="edge">
<title>124376437886112&#45;&gt;124376432873920*</title>
<path fill="none" stroke="black" d="M191.15,-35.83C200.46,-37.44 209.44,-38.99 217.54,-40.38"/>
<polygon fill="black" stroke="black" points="217.19,-43.87 227.64,-42.12 218.38,-36.98 217.19,-43.87"/>
</g>
<!-- 124376432876896 -->
<g id="node6" class="node">
<title>124376432876896</title>
<polygon fill="none" stroke="black" points="637,-55.5 637,-91.5 824,-91.5 824,-55.5 637,-55.5"/>
<text text-anchor="middle" x="650" y="-69.8" font-family="Times,serif" font-size="14.00">d</text>
<polyline fill="none" stroke="black" points="663,-55.5 663,-91.5 "/>
<text text-anchor="middle" x="703" y="-69.8" font-family="Times,serif" font-size="14.00">data: 4.0</text>
<polyline fill="none" stroke="black" points="743,-55.5 743,-91.5 "/>
<text text-anchor="middle" x="783.5" y="-69.8" font-family="Times,serif" font-size="14.00">grad: 0.0</text>
</g>
<!-- 124376432876896&#45;&gt;124376433223712* -->
<g id="edge7" class="edge">
<title>124376432876896&#45;&gt;124376433223712*</title>
<path fill="none" stroke="black" d="M824.05,-56.73C833.54,-55.01 842.71,-53.35 850.95,-51.85"/>
<polygon fill="black" stroke="black" points="851.64,-55.28 860.85,-50.06 850.39,-48.4 851.64,-55.28"/>
</g>
<!-- 124376432876896+&#45;&gt;124376432876896 -->
<g id="edge2" class="edge">
<title>124376432876896+&#45;&gt;124376432876896</title>
<path fill="none" stroke="black" d="M601.21,-73.5C608.73,-73.5 617.43,-73.5 626.67,-73.5"/>
<polygon fill="black" stroke="black" points="626.89,-77 636.89,-73.5 626.89,-70 626.89,-77"/>
</g>
<!-- 124376437836720 -->
<g id="node8" class="node">
<title>124376437836720</title>
<polygon fill="none" stroke="black" points="639,-0.5 639,-36.5 822,-36.5 822,-0.5 639,-0.5"/>
<text text-anchor="middle" x="650" y="-14.8" font-family="Times,serif" font-size="14.00">f</text>
<polyline fill="none" stroke="black" points="661,-0.5 661,-36.5 "/>
<text text-anchor="middle" x="701" y="-14.8" font-family="Times,serif" font-size="14.00">data: 5.0</text>
<polyline fill="none" stroke="black" points="741,-0.5 741,-36.5 "/>
<text text-anchor="middle" x="781.5" y="-14.8" font-family="Times,serif" font-size="14.00">grad: 0.0</text>
</g>
<!-- 124376437836720&#45;&gt;124376433223712* -->
<g id="edge5" class="edge">
<title>124376437836720&#45;&gt;124376433223712*</title>
<path fill="none" stroke="black" d="M822.27,-34.36C832.26,-36.11 841.94,-37.8 850.61,-39.32"/>
<polygon fill="black" stroke="black" points="850.19,-42.8 860.65,-41.07 851.4,-35.9 850.19,-42.8"/>
</g>
<!-- 124376432873920 -->
<g id="node9" class="node">
<title>124376432873920</title>
<polygon fill="none" stroke="black" points="319,-28.5 319,-64.5 509,-64.5 509,-28.5 319,-28.5"/>
<text text-anchor="middle" x="331.5" y="-42.8" font-family="Times,serif" font-size="14.00">e</text>
<polyline fill="none" stroke="black" points="344,-28.5 344,-64.5 "/>
<text text-anchor="middle" x="386" y="-42.8" font-family="Times,serif" font-size="14.00">data: &#45;6.0</text>
<polyline fill="none" stroke="black" points="428,-28.5 428,-64.5 "/>
<text text-anchor="middle" x="468.5" y="-42.8" font-family="Times,serif" font-size="14.00">grad: 0.0</text>
</g>
<!-- 124376432873920&#45;&gt;124376432876896+ -->
<g id="edge6" class="edge">
<title>124376432873920&#45;&gt;124376432876896+</title>
<path fill="none" stroke="black" d="M509.19,-62.6C519.25,-64.31 528.96,-65.97 537.65,-67.46"/>
<polygon fill="black" stroke="black" points="537.24,-70.94 547.69,-69.17 538.42,-64.04 537.24,-70.94"/>
</g>
<!-- 124376432873920*&#45;&gt;124376432873920 -->
<g id="edge3" class="edge">
<title>124376432873920*&#45;&gt;124376432873920</title>
<path fill="none" stroke="black" d="M281.09,-46.5C289.18,-46.5 298.63,-46.5 308.7,-46.5"/>
<polygon fill="black" stroke="black" points="308.94,-50 318.94,-46.5 308.94,-43 308.94,-50"/>
</g>
</g>
</svg>
