<?xml version="1.0" encoding="UTF-8" standalone="no"?>
<!DOCTYPE svg PUBLIC "-//W3C//DTD SVG 1.1//EN"
 "http://www.w3.org/Graphics/SVG/1.1/DTD/svg11.dtd">
<!-- Generated by graphviz version 2.43.0 (0)
 -->
<!-- Title: %3 Pages: 1 -->
<svg width="1163pt" height="156pt"
 viewBox="0.00 0.00 1163.00 156.00" xmlns="http://www.w3.org/2000/svg" xmlns:xlink="http://www.w3.org/1999/xlink">
<g id="graph0" class="graph" transform="scale(1 1) rotate(0) translate(4 152)">
<title>%3</title>
<polygon fill="white" stroke="transparent" points="-4,4 -4,-152 1159,-152 1159,4 -4,4"/>
<!-- 131544911583888 -->
<g id="node1" class="node">
<title>131544911583888</title>
<polygon fill="none" stroke="black" points="0,-111.5 0,-147.5 200,-147.5 200,-111.5 0,-111.5"/>
<text text-anchor="middle" x="13" y="-125.8" font-family="Times,serif" font-size="14.00">b</text>
<polyline fill="none" stroke="black" points="26,-111.5 26,-147.5 "/>
<text text-anchor="middle" x="68" y="-125.8" font-family="Times,serif" font-size="14.00">data: &#45;3.0</text>
<polyline fill="none" stroke="black" points="110,-111.5 110,-147.5 "/>
<text text-anchor="middle" x="155" y="-125.8" font-family="Times,serif" font-size="14.00">grad: 10.0</text>
</g>
<!-- 131544906760976* -->
<g id="node7" class="node">
<title>131544906760976*</title>
<ellipse fill="none" stroke="black" cx="263" cy="-101.5" rx="27" ry="18"/>
<text text-anchor="middle" x="263" y="-97.8" font-family="Times,serif" font-size="14.00">*</text>
</g>
<!-- 131544911583888&#45;&gt;131544906760976* -->
<g id="edge6" class="edge">
<title>131544911583888&#45;&gt;131544906760976*</title>
<path fill="none" stroke="black" d="M200.21,-112.25C209.57,-110.62 218.57,-109.05 226.67,-107.64"/>
<polygon fill="black" stroke="black" points="227.5,-111.05 236.76,-105.89 226.3,-104.16 227.5,-111.05"/>
</g>
<!-- 131544906847904 -->
<g id="node2" class="node">
<title>131544906847904</title>
<polygon fill="none" stroke="black" points="959,-27.5 959,-63.5 1155,-63.5 1155,-27.5 959,-27.5"/>
<text text-anchor="middle" x="972" y="-41.8" font-family="Times,serif" font-size="14.00">L</text>
<polyline fill="none" stroke="black" points="985,-27.5 985,-63.5 "/>
<text text-anchor="middle" x="1029.5" y="-41.8" font-family="Times,serif" font-size="14.00">data: 20.0</text>
<polyline fill="none" stroke="black" points="1074,-27.5 1074,-63.5 "/>
<text text-anchor="middle" x="1114.5" y="-41.8" font-family="Times,serif" font-size="14.00">grad: 1.0</text>
</g>
<!-- 131544906847904* -->
<g id="node3" class="node">
<title>131544906847904*</title>
<ellipse fill="none" stroke="black" cx="896" cy="-45.5" rx="27" ry="18"/>
<text text-anchor="middle" x="896" y="-41.8" font-family="Times,serif" font-size="14.00">*</text>
</g>
<!-- 131544906847904*&#45;&gt;131544906847904 -->
<g id="edge1" class="edge">
<title>131544906847904*&#45;&gt;131544906847904</title>
<path fill="none" stroke="black" d="M923.26,-45.5C930.77,-45.5 939.46,-45.5 948.72,-45.5"/>
<polygon fill="black" stroke="black" points="948.97,-49 958.97,-45.5 948.97,-42 948.97,-49"/>
</g>
<!-- 131544911488720 -->
<g id="node4" class="node">
<title>131544911488720</title>
<polygon fill="none" stroke="black" points="648,-0.5 648,-36.5 831,-36.5 831,-0.5 648,-0.5"/>
<text text-anchor="middle" x="659" y="-14.8" font-family="Times,serif" font-size="14.00">f</text>
<polyline fill="none" stroke="black" points="670,-0.5 670,-36.5 "/>
<text text-anchor="middle" x="710" y="-14.8" font-family="Times,serif" font-size="14.00">data: 5.0</text>
<polyline fill="none" stroke="black" points="750,-0.5 750,-36.5 "/>
<text text-anchor="middle" x="790.5" y="-14.8" font-family="Times,serif" font-size="14.00">grad: 4.0</text>
</g>
<!-- 131544911488720&#45;&gt;131544906847904* -->
<g id="edge5" class="edge">
<title>131544911488720&#45;&gt;131544906847904*</title>
<path fill="none" stroke="black" d="M831.27,-34.36C841.26,-36.11 850.94,-37.8 859.61,-39.32"/>
<polygon fill="black" stroke="black" points="859.19,-42.8 869.65,-41.07 860.4,-35.9 859.19,-42.8"/>
</g>
<!-- 131544911488240 -->
<g id="node5" class="node">
<title>131544911488240</title>
<polygon fill="none" stroke="black" points="326,-28.5 326,-64.5 520,-64.5 520,-28.5 326,-28.5"/>
<text text-anchor="middle" x="338" y="-42.8" font-family="Times,serif" font-size="14.00">c</text>
<polyline fill="none" stroke="black" points="350,-28.5 350,-64.5 "/>
<text text-anchor="middle" x="394.5" y="-42.8" font-family="Times,serif" font-size="14.00">data: 10.0</text>
<polyline fill="none" stroke="black" points="439,-28.5 439,-64.5 "/>
<text text-anchor="middle" x="479.5" y="-42.8" font-family="Times,serif" font-size="14.00">grad: 5.0</text>
</g>
<!-- 131544906847712+ -->
<g id="node10" class="node">
<title>131544906847712+</title>
<ellipse fill="none" stroke="black" cx="583" cy="-73.5" rx="27" ry="18"/>
<text text-anchor="middle" x="583" y="-69.8" font-family="Times,serif" font-size="14.00">+</text>
</g>
<!-- 131544911488240&#45;&gt;131544906847712+ -->
<g id="edge9" class="edge">
<title>131544911488240&#45;&gt;131544906847712+</title>
<path fill="none" stroke="black" d="M520.01,-62.91C529.35,-64.5 538.37,-66.04 546.49,-67.43"/>
<polygon fill="black" stroke="black" points="546.16,-70.93 556.6,-69.16 547.34,-64.03 546.16,-70.93"/>
</g>
<!-- 131544906760976 -->
<g id="node6" class="node">
<title>131544906760976</title>
<polygon fill="none" stroke="black" points="328,-83.5 328,-119.5 518,-119.5 518,-83.5 328,-83.5"/>
<text text-anchor="middle" x="340.5" y="-97.8" font-family="Times,serif" font-size="14.00">e</text>
<polyline fill="none" stroke="black" points="353,-83.5 353,-119.5 "/>
<text text-anchor="middle" x="395" y="-97.8" font-family="Times,serif" font-size="14.00">data: &#45;6.0</text>
<polyline fill="none" stroke="black" points="437,-83.5 437,-119.5 "/>
<text text-anchor="middle" x="477.5" y="-97.8" font-family="Times,serif" font-size="14.00">grad: 5.0</text>
</g>
<!-- 131544906760976&#45;&gt;131544906847712+ -->
<g id="edge4" class="edge">
<title>131544906760976&#45;&gt;131544906847712+</title>
<path fill="none" stroke="black" d="M518.19,-84.81C528.25,-83.03 537.96,-81.3 546.65,-79.77"/>
<polygon fill="black" stroke="black" points="547.45,-83.18 556.69,-77.99 546.23,-76.28 547.45,-83.18"/>
</g>
<!-- 131544906760976*&#45;&gt;131544906760976 -->
<g id="edge2" class="edge">
<title>131544906760976*&#45;&gt;131544906760976</title>
<path fill="none" stroke="black" d="M290.09,-101.5C298.18,-101.5 307.63,-101.5 317.7,-101.5"/>
<polygon fill="black" stroke="black" points="317.94,-105 327.94,-101.5 317.94,-98 317.94,-105"/>
</g>
<!-- 131544911584560 -->
<g id="node8" class="node">
<title>131544911584560</title>
<polygon fill="none" stroke="black" points="0,-56.5 0,-92.5 200,-92.5 200,-56.5 0,-56.5"/>
<text text-anchor="middle" x="12.5" y="-70.8" font-family="Times,serif" font-size="14.00">a</text>
<polyline fill="none" stroke="black" points="25,-56.5 25,-92.5 "/>
<text text-anchor="middle" x="65" y="-70.8" font-family="Times,serif" font-size="14.00">data: 2.0</text>
<polyline fill="none" stroke="black" points="105,-56.5 105,-92.5 "/>
<text text-anchor="middle" x="152.5" y="-70.8" font-family="Times,serif" font-size="14.00">grad: &#45;15.0</text>
</g>
<!-- 131544911584560&#45;&gt;131544906760976* -->
<g id="edge7" class="edge">
<title>131544911584560&#45;&gt;131544906760976*</title>
<path fill="none" stroke="black" d="M200.21,-91.14C209.57,-92.71 218.57,-94.22 226.67,-95.58"/>
<polygon fill="black" stroke="black" points="226.31,-99.06 236.76,-97.27 227.47,-92.16 226.31,-99.06"/>
</g>
<!-- 131544906847712 -->
<g id="node9" class="node">
<title>131544906847712</title>
<polygon fill="none" stroke="black" points="646,-55.5 646,-91.5 833,-91.5 833,-55.5 646,-55.5"/>
<text text-anchor="middle" x="659" y="-69.8" font-family="Times,serif" font-size="14.00">d</text>
<polyline fill="none" stroke="black" points="672,-55.5 672,-91.5 "/>
<text text-anchor="middle" x="712" y="-69.8" font-family="Times,serif" font-size="14.00">data: 4.0</text>
<polyline fill="none" stroke="black" points="752,-55.5 752,-91.5 "/>
<text text-anchor="middle" x="792.5" y="-69.8" font-family="Times,serif" font-size="14.00">grad: 5.0</text>
</g>
<!-- 131544906847712&#45;&gt;131544906847904* -->
<g id="edge8" class="edge">
<title>131544906847712&#45;&gt;131544906847904*</title>
<path fill="none" stroke="black" d="M833.05,-56.73C842.54,-55.01 851.71,-53.35 859.95,-51.85"/>
<polygon fill="black" stroke="black" points="860.64,-55.28 869.85,-50.06 859.39,-48.4 860.64,-55.28"/>
</g>
<!-- 131544906847712+&#45;&gt;131544906847712 -->
<g id="edge3" class="edge">
<title>131544906847712+&#45;&gt;131544906847712</title>
<path fill="none" stroke="black" d="M610.21,-73.5C617.73,-73.5 626.43,-73.5 635.67,-73.5"/>
<polygon fill="black" stroke="black" points="635.89,-77 645.89,-73.5 635.89,-70 635.89,-77"/>
</g>
</g>
</svg>
