<?xml version="1.0" encoding="UTF-8" standalone="no"?>
<!DOCTYPE svg PUBLIC "-//W3C//DTD SVG 1.1//EN"
 "http://www.w3.org/Graphics/SVG/1.1/DTD/svg11.dtd">
<!-- Generated by graphviz version 2.43.0 (0)
 -->
<!-- Title: %3 Pages: 1 -->
<svg width="1130pt" height="210pt"
 viewBox="0.00 0.00 1130.00 210.00" xmlns="http://www.w3.org/2000/svg" xmlns:xlink="http://www.w3.org/1999/xlink">
<g id="graph0" class="graph" transform="scale(1 1) rotate(0) translate(4 206)">
<title>%3</title>
<polygon fill="white" stroke="transparent" points="-4,4 -4,-206 1126,-206 1126,4 -4,4"/>
<!-- 133512480932864 -->
<g id="node1" class="node">
<title>133512480932864</title>
<polygon fill="none" stroke="black" points="2,-165.5 2,-201.5 120,-201.5 120,-165.5 2,-165.5"/>
<text text-anchor="middle" x="21" y="-179.8" font-family="Times,serif" font-size="14.00">w2</text>
<polyline fill="none" stroke="black" points="40,-165.5 40,-201.5 "/>
<text text-anchor="middle" x="80" y="-179.8" font-family="Times,serif" font-size="14.00">data: 1.0</text>
</g>
<!-- 133512480440128* -->
<g id="node11" class="node">
<title>133512480440128*</title>
<ellipse fill="none" stroke="black" cx="185" cy="-128.5" rx="27" ry="18"/>
<text text-anchor="middle" x="185" y="-124.8" font-family="Times,serif" font-size="14.00">*</text>
</g>
<!-- 133512480932864&#45;&gt;133512480440128* -->
<g id="edge7" class="edge">
<title>133512480932864&#45;&gt;133512480440128*</title>
<path fill="none" stroke="black" d="M102.02,-165.5C108.7,-162.5 115.54,-159.41 122,-156.5 132.01,-151.99 142.93,-147.06 152.78,-142.61"/>
<polygon fill="black" stroke="black" points="154.52,-145.66 162.2,-138.36 151.64,-139.28 154.52,-145.66"/>
</g>
<!-- 133512484162192 -->
<g id="node2" class="node">
<title>133512484162192</title>
<polygon fill="none" stroke="black" points="0,-55.5 0,-91.5 122,-91.5 122,-55.5 0,-55.5"/>
<text text-anchor="middle" x="19" y="-69.8" font-family="Times,serif" font-size="14.00">w1</text>
<polyline fill="none" stroke="black" points="38,-55.5 38,-91.5 "/>
<text text-anchor="middle" x="80" y="-69.8" font-family="Times,serif" font-size="14.00">data: &#45;3.0</text>
</g>
<!-- 133512480935696* -->
<g id="node8" class="node">
<title>133512480935696*</title>
<ellipse fill="none" stroke="black" cx="185" cy="-73.5" rx="27" ry="18"/>
<text text-anchor="middle" x="185" y="-69.8" font-family="Times,serif" font-size="14.00">*</text>
</g>
<!-- 133512484162192&#45;&gt;133512480935696* -->
<g id="edge5" class="edge">
<title>133512484162192&#45;&gt;133512480935696*</title>
<path fill="none" stroke="black" d="M122.29,-73.5C130.97,-73.5 139.67,-73.5 147.69,-73.5"/>
<polygon fill="black" stroke="black" points="147.77,-77 157.77,-73.5 147.77,-70 147.77,-77"/>
</g>
<!-- 133512480514736 -->
<g id="node3" class="node">
<title>133512480514736</title>
<polygon fill="none" stroke="black" points="520,-82.5 520,-118.5 732,-118.5 732,-82.5 520,-82.5"/>
<text text-anchor="middle" x="584" y="-96.8" font-family="Times,serif" font-size="14.00">x1*w1 + x2*w2</text>
<polyline fill="none" stroke="black" points="648,-82.5 648,-118.5 "/>
<text text-anchor="middle" x="690" y="-96.8" font-family="Times,serif" font-size="14.00">data: &#45;6.0</text>
</g>
<!-- 133512480516800+ -->
<g id="node6" class="node">
<title>133512480516800+</title>
<ellipse fill="none" stroke="black" cx="795" cy="-72.5" rx="27" ry="18"/>
<text text-anchor="middle" x="795" y="-68.8" font-family="Times,serif" font-size="14.00">+</text>
</g>
<!-- 133512480514736&#45;&gt;133512480516800+ -->
<g id="edge10" class="edge">
<title>133512480514736&#45;&gt;133512480516800+</title>
<path fill="none" stroke="black" d="M732.29,-82.85C741.62,-81.28 750.56,-79.78 758.6,-78.44"/>
<polygon fill="black" stroke="black" points="759.31,-81.86 768.6,-76.76 758.16,-74.96 759.31,-81.86"/>
</g>
<!-- 133512480514736+ -->
<g id="node4" class="node">
<title>133512480514736+</title>
<ellipse fill="none" stroke="black" cx="457" cy="-100.5" rx="27" ry="18"/>
<text text-anchor="middle" x="457" y="-96.8" font-family="Times,serif" font-size="14.00">+</text>
</g>
<!-- 133512480514736+&#45;&gt;133512480514736 -->
<g id="edge1" class="edge">
<title>133512480514736+&#45;&gt;133512480514736</title>
<path fill="none" stroke="black" d="M484.09,-100.5C491.65,-100.5 500.42,-100.5 509.83,-100.5"/>
<polygon fill="black" stroke="black" points="509.83,-104 519.83,-100.5 509.83,-97 509.83,-104"/>
</g>
<!-- 133512480516800 -->
<g id="node5" class="node">
<title>133512480516800</title>
<polygon fill="none" stroke="black" points="858,-54.5 858,-90.5 1122,-90.5 1122,-54.5 858,-54.5"/>
<text text-anchor="middle" x="882.5" y="-68.8" font-family="Times,serif" font-size="14.00">logit</text>
<polyline fill="none" stroke="black" points="907,-54.5 907,-90.5 "/>
<text text-anchor="middle" x="1014.5" y="-68.8" font-family="Times,serif" font-size="14.00">data: 0.7000000000000002</text>
</g>
<!-- 133512480516800+&#45;&gt;133512480516800 -->
<g id="edge2" class="edge">
<title>133512480516800+&#45;&gt;133512480516800</title>
<path fill="none" stroke="black" d="M822.03,-72.5C829.51,-72.5 838.24,-72.5 847.71,-72.5"/>
<polygon fill="black" stroke="black" points="847.82,-76 857.82,-72.5 847.82,-69 847.82,-76"/>
</g>
<!-- 133512480935696 -->
<g id="node7" class="node">
<title>133512480935696</title>
<polygon fill="none" stroke="black" points="248,-55.5 248,-91.5 394,-91.5 394,-55.5 248,-55.5"/>
<text text-anchor="middle" x="279" y="-69.8" font-family="Times,serif" font-size="14.00">x1*w1</text>
<polyline fill="none" stroke="black" points="310,-55.5 310,-91.5 "/>
<text text-anchor="middle" x="352" y="-69.8" font-family="Times,serif" font-size="14.00">data: &#45;6.0</text>
</g>
<!-- 133512480935696&#45;&gt;133512480514736+ -->
<g id="edge9" class="edge">
<title>133512480935696&#45;&gt;133512480514736+</title>
<path fill="none" stroke="black" d="M394.1,-88.03C403.42,-89.91 412.61,-91.76 420.94,-93.44"/>
<polygon fill="black" stroke="black" points="420.48,-96.91 430.97,-95.46 421.86,-90.05 420.48,-96.91"/>
</g>
<!-- 133512480935696*&#45;&gt;133512480935696 -->
<g id="edge3" class="edge">
<title>133512480935696*&#45;&gt;133512480935696</title>
<path fill="none" stroke="black" d="M212.15,-73.5C219.82,-73.5 228.63,-73.5 237.85,-73.5"/>
<polygon fill="black" stroke="black" points="237.98,-77 247.98,-73.5 237.98,-70 237.98,-77"/>
</g>
<!-- 133512484162864 -->
<g id="node9" class="node">
<title>133512484162864</title>
<polygon fill="none" stroke="black" points="4,-0.5 4,-36.5 118,-36.5 118,-0.5 4,-0.5"/>
<text text-anchor="middle" x="21" y="-14.8" font-family="Times,serif" font-size="14.00">x1</text>
<polyline fill="none" stroke="black" points="38,-0.5 38,-36.5 "/>
<text text-anchor="middle" x="78" y="-14.8" font-family="Times,serif" font-size="14.00">data: 2.0</text>
</g>
<!-- 133512484162864&#45;&gt;133512480935696* -->
<g id="edge12" class="edge">
<title>133512484162864&#45;&gt;133512480935696*</title>
<path fill="none" stroke="black" d="M101.95,-36.51C118.52,-43.98 137.46,-52.52 152.96,-59.51"/>
<polygon fill="black" stroke="black" points="151.56,-62.72 162.12,-63.64 154.44,-56.33 151.56,-62.72"/>
</g>
<!-- 133512480440128 -->
<g id="node10" class="node">
<title>133512480440128</title>
<polygon fill="none" stroke="black" points="250,-110.5 250,-146.5 392,-146.5 392,-110.5 250,-110.5"/>
<text text-anchor="middle" x="281" y="-124.8" font-family="Times,serif" font-size="14.00">x2*w2</text>
<polyline fill="none" stroke="black" points="312,-110.5 312,-146.5 "/>
<text text-anchor="middle" x="352" y="-124.8" font-family="Times,serif" font-size="14.00">data: 0.0</text>
</g>
<!-- 133512480440128&#45;&gt;133512480514736+ -->
<g id="edge11" class="edge">
<title>133512480440128&#45;&gt;133512480514736+</title>
<path fill="none" stroke="black" d="M392.14,-113.84C402.15,-111.75 412.07,-109.68 421,-107.81"/>
<polygon fill="black" stroke="black" points="421.9,-111.2 430.97,-105.73 420.47,-104.35 421.9,-111.2"/>
</g>
<!-- 133512480440128*&#45;&gt;133512480440128 -->
<g id="edge4" class="edge">
<title>133512480440128*&#45;&gt;133512480440128</title>
<path fill="none" stroke="black" d="M212.15,-128.5C220.38,-128.5 229.93,-128.5 239.89,-128.5"/>
<polygon fill="black" stroke="black" points="239.95,-132 249.95,-128.5 239.95,-125 239.95,-132"/>
</g>
<!-- 133512480933344 -->
<g id="node12" class="node">
<title>133512480933344</title>
<polygon fill="none" stroke="black" points="573,-27.5 573,-63.5 679,-63.5 679,-27.5 573,-27.5"/>
<text text-anchor="middle" x="586" y="-41.8" font-family="Times,serif" font-size="14.00">b</text>
<polyline fill="none" stroke="black" points="599,-27.5 599,-63.5 "/>
<text text-anchor="middle" x="639" y="-41.8" font-family="Times,serif" font-size="14.00">data: 6.7</text>
</g>
<!-- 133512480933344&#45;&gt;133512480516800+ -->
<g id="edge8" class="edge">
<title>133512480933344&#45;&gt;133512480516800+</title>
<path fill="none" stroke="black" d="M679.38,-53.97C705.1,-58.13 735.41,-63.03 758.4,-66.74"/>
<polygon fill="black" stroke="black" points="757.97,-70.22 768.4,-68.36 759.09,-63.31 757.97,-70.22"/>
</g>
<!-- 133512484161520 -->
<g id="node13" class="node">
<title>133512484161520</title>
<polygon fill="none" stroke="black" points="4,-110.5 4,-146.5 118,-146.5 118,-110.5 4,-110.5"/>
<text text-anchor="middle" x="21" y="-124.8" font-family="Times,serif" font-size="14.00">x2</text>
<polyline fill="none" stroke="black" points="38,-110.5 38,-146.5 "/>
<text text-anchor="middle" x="78" y="-124.8" font-family="Times,serif" font-size="14.00">data: 0.0</text>
</g>
<!-- 133512484161520&#45;&gt;133512480440128* -->
<g id="edge6" class="edge">
<title>133512484161520&#45;&gt;133512480440128*</title>
<path fill="none" stroke="black" d="M118,-128.5C128.1,-128.5 138.39,-128.5 147.75,-128.5"/>
<polygon fill="black" stroke="black" points="147.85,-132 157.85,-128.5 147.85,-125 147.85,-132"/>
</g>
</g>
</svg>
