<?xml version="1.0" encoding="UTF-8" standalone="no"?>
<!DOCTYPE svg PUBLIC "-//W3C//DTD SVG 1.1//EN"
 "http://www.w3.org/Graphics/SVG/1.1/DTD/svg11.dtd">
<!-- Generated by graphviz version 2.43.0 (0)
 -->
<!-- Title: %3 Pages: 1 -->
<svg width="1503pt" height="210pt"
 viewBox="0.00 0.00 1502.69 210.00" xmlns="http://www.w3.org/2000/svg" xmlns:xlink="http://www.w3.org/1999/xlink">
<g id="graph0" class="graph" transform="scale(1 1) rotate(0) translate(4 206)">
<title>%3</title>
<polygon fill="white" stroke="transparent" points="-4,4 -4,-206 1498.69,-206 1498.69,4 -4,4"/>
<!-- 128572475012096 -->
<g id="node1" class="node">
<title>128572475012096</title>
<polygon fill="none" stroke="black" points="2,-165.5 2,-201.5 120,-201.5 120,-165.5 2,-165.5"/>
<text text-anchor="middle" x="21" y="-179.8" font-family="Times,serif" font-size="14.00">w2</text>
<polyline fill="none" stroke="black" points="40,-165.5 40,-201.5 "/>
<text text-anchor="middle" x="80" y="-179.8" font-family="Times,serif" font-size="14.00">data: 1.0</text>
</g>
<!-- 128572471394112* -->
<g id="node13" class="node">
<title>128572471394112*</title>
<ellipse fill="none" stroke="black" cx="185" cy="-128.5" rx="27" ry="18"/>
<text text-anchor="middle" x="185" y="-124.8" font-family="Times,serif" font-size="14.00">*</text>
</g>
<!-- 128572475012096&#45;&gt;128572471394112* -->
<g id="edge11" class="edge">
<title>128572475012096&#45;&gt;128572471394112*</title>
<path fill="none" stroke="black" d="M102.02,-165.5C108.7,-162.5 115.54,-159.41 122,-156.5 132.01,-151.99 142.93,-147.06 152.78,-142.61"/>
<polygon fill="black" stroke="black" points="154.52,-145.66 162.2,-138.36 151.64,-139.28 154.52,-145.66"/>
</g>
<!-- 128572475112080 -->
<g id="node2" class="node">
<title>128572475112080</title>
<polygon fill="none" stroke="black" points="0,-55.5 0,-91.5 122,-91.5 122,-55.5 0,-55.5"/>
<text text-anchor="middle" x="19" y="-69.8" font-family="Times,serif" font-size="14.00">w1</text>
<polyline fill="none" stroke="black" points="38,-55.5 38,-91.5 "/>
<text text-anchor="middle" x="80" y="-69.8" font-family="Times,serif" font-size="14.00">data: &#45;3.0</text>
</g>
<!-- 128572475014928* -->
<g id="node8" class="node">
<title>128572475014928*</title>
<ellipse fill="none" stroke="black" cx="185" cy="-73.5" rx="27" ry="18"/>
<text text-anchor="middle" x="185" y="-69.8" font-family="Times,serif" font-size="14.00">*</text>
</g>
<!-- 128572475112080&#45;&gt;128572475014928* -->
<g id="edge9" class="edge">
<title>128572475112080&#45;&gt;128572475014928*</title>
<path fill="none" stroke="black" d="M122.29,-73.5C130.97,-73.5 139.67,-73.5 147.69,-73.5"/>
<polygon fill="black" stroke="black" points="147.77,-77 157.77,-73.5 147.77,-70 147.77,-77"/>
</g>
<!-- 128572471468720 -->
<g id="node3" class="node">
<title>128572471468720</title>
<polygon fill="none" stroke="black" points="530,-82.5 530,-118.5 742,-118.5 742,-82.5 530,-82.5"/>
<text text-anchor="middle" x="594" y="-96.8" font-family="Times,serif" font-size="14.00">x1*w1 + x2*w2</text>
<polyline fill="none" stroke="black" points="658,-82.5 658,-118.5 "/>
<text text-anchor="middle" x="700" y="-96.8" font-family="Times,serif" font-size="14.00">data: &#45;6.0</text>
</g>
<!-- 128572471470784+ -->
<g id="node6" class="node">
<title>128572471470784+</title>
<ellipse fill="none" stroke="black" cx="815" cy="-72.5" rx="27" ry="18"/>
<text text-anchor="middle" x="815" y="-68.8" font-family="Times,serif" font-size="14.00">+</text>
</g>
<!-- 128572471468720&#45;&gt;128572471470784+ -->
<g id="edge14" class="edge">
<title>128572471468720&#45;&gt;128572471470784+</title>
<path fill="none" stroke="black" d="M742.01,-83.89C755.09,-81.82 767.68,-79.83 778.57,-78.1"/>
<polygon fill="black" stroke="black" points="779.12,-81.56 788.45,-76.54 778.03,-74.65 779.12,-81.56"/>
</g>
<!-- 128572471468720+ -->
<g id="node4" class="node">
<title>128572471468720+</title>
<ellipse fill="none" stroke="black" cx="457" cy="-100.5" rx="27" ry="18"/>
<text text-anchor="middle" x="457" y="-96.8" font-family="Times,serif" font-size="14.00">+</text>
</g>
<!-- 128572471468720+&#45;&gt;128572471468720 -->
<g id="edge1" class="edge">
<title>128572471468720+&#45;&gt;128572471468720</title>
<path fill="none" stroke="black" d="M484.12,-100.5C494.16,-100.5 506.37,-100.5 519.46,-100.5"/>
<polygon fill="black" stroke="black" points="519.62,-104 529.62,-100.5 519.62,-97 519.62,-104"/>
</g>
<!-- 128572471470784 -->
<g id="node5" class="node">
<title>128572471470784</title>
<polygon fill="none" stroke="black" points="878,-54.5 878,-90.5 1119,-90.5 1119,-54.5 878,-54.5"/>
<text text-anchor="middle" x="891" y="-68.8" font-family="Times,serif" font-size="14.00">n</text>
<polyline fill="none" stroke="black" points="904,-54.5 904,-90.5 "/>
<text text-anchor="middle" x="1011.5" y="-68.8" font-family="Times,serif" font-size="14.00">data: 0.8813735870195432</text>
</g>
<!-- 128572471471408tanh -->
<g id="node10" class="node">
<title>128572471471408tanh</title>
<ellipse fill="none" stroke="black" cx="1186.85" cy="-72.5" rx="31.7" ry="18"/>
<text text-anchor="middle" x="1186.85" y="-68.8" font-family="Times,serif" font-size="14.00">tanh</text>
</g>
<!-- 128572471470784&#45;&gt;128572471471408tanh -->
<g id="edge6" class="edge">
<title>128572471470784&#45;&gt;128572471471408tanh</title>
<path fill="none" stroke="black" d="M1119.1,-72.5C1128.06,-72.5 1136.67,-72.5 1144.56,-72.5"/>
<polygon fill="black" stroke="black" points="1144.82,-76 1154.82,-72.5 1144.82,-69 1144.82,-76"/>
</g>
<!-- 128572471470784+&#45;&gt;128572471470784 -->
<g id="edge2" class="edge">
<title>128572471470784+&#45;&gt;128572471470784</title>
<path fill="none" stroke="black" d="M842,-72.5C849.5,-72.5 858.22,-72.5 867.64,-72.5"/>
<polygon fill="black" stroke="black" points="867.68,-76 877.68,-72.5 867.68,-69 867.68,-76"/>
</g>
<!-- 128572475014928 -->
<g id="node7" class="node">
<title>128572475014928</title>
<polygon fill="none" stroke="black" points="248,-55.5 248,-91.5 394,-91.5 394,-55.5 248,-55.5"/>
<text text-anchor="middle" x="279" y="-69.8" font-family="Times,serif" font-size="14.00">x1*w1</text>
<polyline fill="none" stroke="black" points="310,-55.5 310,-91.5 "/>
<text text-anchor="middle" x="352" y="-69.8" font-family="Times,serif" font-size="14.00">data: &#45;6.0</text>
</g>
<!-- 128572475014928&#45;&gt;128572471468720+ -->
<g id="edge13" class="edge">
<title>128572475014928&#45;&gt;128572471468720+</title>
<path fill="none" stroke="black" d="M394.1,-88.03C403.42,-89.91 412.61,-91.76 420.94,-93.44"/>
<polygon fill="black" stroke="black" points="420.48,-96.91 430.97,-95.46 421.86,-90.05 420.48,-96.91"/>
</g>
<!-- 128572475014928*&#45;&gt;128572475014928 -->
<g id="edge3" class="edge">
<title>128572475014928*&#45;&gt;128572475014928</title>
<path fill="none" stroke="black" d="M212.15,-73.5C219.82,-73.5 228.63,-73.5 237.85,-73.5"/>
<polygon fill="black" stroke="black" points="237.98,-77 247.98,-73.5 237.98,-70 237.98,-77"/>
</g>
<!-- 128572471471408 -->
<g id="node9" class="node">
<title>128572471471408</title>
<polygon fill="none" stroke="black" points="1254.69,-54.5 1254.69,-90.5 1494.69,-90.5 1494.69,-54.5 1254.69,-54.5"/>
<text text-anchor="middle" x="1267.19" y="-68.8" font-family="Times,serif" font-size="14.00">o</text>
<polyline fill="none" stroke="black" points="1279.69,-54.5 1279.69,-90.5 "/>
<text text-anchor="middle" x="1387.19" y="-68.8" font-family="Times,serif" font-size="14.00">data: 0.7071067811865477</text>
</g>
<!-- 128572471471408tanh&#45;&gt;128572471471408 -->
<g id="edge4" class="edge">
<title>128572471471408tanh&#45;&gt;128572471471408</title>
<path fill="none" stroke="black" d="M1218.95,-72.5C1226.54,-72.5 1235.14,-72.5 1244.29,-72.5"/>
<polygon fill="black" stroke="black" points="1244.43,-76 1254.43,-72.5 1244.43,-69 1244.43,-76"/>
</g>
<!-- 128572475112752 -->
<g id="node11" class="node">
<title>128572475112752</title>
<polygon fill="none" stroke="black" points="4,-0.5 4,-36.5 118,-36.5 118,-0.5 4,-0.5"/>
<text text-anchor="middle" x="21" y="-14.8" font-family="Times,serif" font-size="14.00">x1</text>
<polyline fill="none" stroke="black" points="38,-0.5 38,-36.5 "/>
<text text-anchor="middle" x="78" y="-14.8" font-family="Times,serif" font-size="14.00">data: 2.0</text>
</g>
<!-- 128572475112752&#45;&gt;128572475014928* -->
<g id="edge12" class="edge">
<title>128572475112752&#45;&gt;128572475014928*</title>
<path fill="none" stroke="black" d="M101.95,-36.51C118.52,-43.98 137.46,-52.52 152.96,-59.51"/>
<polygon fill="black" stroke="black" points="151.56,-62.72 162.12,-63.64 154.44,-56.33 151.56,-62.72"/>
</g>
<!-- 128572471394112 -->
<g id="node12" class="node">
<title>128572471394112</title>
<polygon fill="none" stroke="black" points="250,-110.5 250,-146.5 392,-146.5 392,-110.5 250,-110.5"/>
<text text-anchor="middle" x="281" y="-124.8" font-family="Times,serif" font-size="14.00">x2*w2</text>
<polyline fill="none" stroke="black" points="312,-110.5 312,-146.5 "/>
<text text-anchor="middle" x="352" y="-124.8" font-family="Times,serif" font-size="14.00">data: 0.0</text>
</g>
<!-- 128572471394112&#45;&gt;128572471468720+ -->
<g id="edge7" class="edge">
<title>128572471394112&#45;&gt;128572471468720+</title>
<path fill="none" stroke="black" d="M392.14,-113.84C402.15,-111.75 412.07,-109.68 421,-107.81"/>
<polygon fill="black" stroke="black" points="421.9,-111.2 430.97,-105.73 420.47,-104.35 421.9,-111.2"/>
</g>
<!-- 128572471394112*&#45;&gt;128572471394112 -->
<g id="edge5" class="edge">
<title>128572471394112*&#45;&gt;128572471394112</title>
<path fill="none" stroke="black" d="M212.15,-128.5C220.38,-128.5 229.93,-128.5 239.89,-128.5"/>
<polygon fill="black" stroke="black" points="239.95,-132 249.95,-128.5 239.95,-125 239.95,-132"/>
</g>
<!-- 128572475012576 -->
<g id="node14" class="node">
<title>128572475012576</title>
<polygon fill="none" stroke="black" points="520,-27.5 520,-63.5 752,-63.5 752,-27.5 520,-27.5"/>
<text text-anchor="middle" x="533" y="-41.8" font-family="Times,serif" font-size="14.00">b</text>
<polyline fill="none" stroke="black" points="546,-27.5 546,-63.5 "/>
<text text-anchor="middle" x="649" y="-41.8" font-family="Times,serif" font-size="14.00">data: 6.881373587019543</text>
</g>
<!-- 128572475012576&#45;&gt;128572471470784+ -->
<g id="edge10" class="edge">
<title>128572475012576&#45;&gt;128572471470784+</title>
<path fill="none" stroke="black" d="M752.09,-63.06C761.46,-64.49 770.39,-65.85 778.4,-67.07"/>
<polygon fill="black" stroke="black" points="777.96,-70.54 788.37,-68.59 779.01,-63.62 777.96,-70.54"/>
</g>
<!-- 128572475111408 -->
<g id="node15" class="node">
<title>128572475111408</title>
<polygon fill="none" stroke="black" points="4,-110.5 4,-146.5 118,-146.5 118,-110.5 4,-110.5"/>
<text text-anchor="middle" x="21" y="-124.8" font-family="Times,serif" font-size="14.00">x2</text>
<polyline fill="none" stroke="black" points="38,-110.5 38,-146.5 "/>
<text text-anchor="middle" x="78" y="-124.8" font-family="Times,serif" font-size="14.00">data: 0.0</text>
</g>
<!-- 128572475111408&#45;&gt;128572471394112* -->
<g id="edge8" class="edge">
<title>128572475111408&#45;&gt;128572471394112*</title>
<path fill="none" stroke="black" d="M118,-128.5C128.1,-128.5 138.39,-128.5 147.75,-128.5"/>
<polygon fill="black" stroke="black" points="147.85,-132 157.85,-128.5 147.85,-125 147.85,-132"/>
</g>
</g>
</svg>
