<?xml version="1.0" encoding="UTF-8" standalone="no"?>
<!DOCTYPE svg PUBLIC "-//W3C//DTD SVG 1.1//EN"
 "http://www.w3.org/Graphics/SVG/1.1/DTD/svg11.dtd">
<!-- Generated by graphviz version 2.43.0 (0)
 -->
<!-- Title: %3 Pages: 1 -->
<svg width="2448pt" height="210pt"
 viewBox="0.00 0.00 2447.69 210.00" xmlns="http://www.w3.org/2000/svg" xmlns:xlink="http://www.w3.org/1999/xlink">
<g id="graph0" class="graph" transform="scale(1 1) rotate(0) translate(4 206)">
<title>%3</title>
<polygon fill="white" stroke="transparent" points="-4,4 -4,-206 2443.69,-206 2443.69,4 -4,4"/>
<!-- 135591773582432 -->
<g id="node1" class="node">
<title>135591773582432</title>
<polygon fill="none" stroke="black" points="69.5,-165.5 69.5,-201.5 268.5,-201.5 268.5,-165.5 69.5,-165.5"/>
<text text-anchor="middle" x="88.5" y="-179.8" font-family="Times,serif" font-size="14.00">w2</text>
<polyline fill="none" stroke="black" points="107.5,-165.5 107.5,-201.5 "/>
<text text-anchor="middle" x="147.5" y="-179.8" font-family="Times,serif" font-size="14.00">data: 1.0</text>
<polyline fill="none" stroke="black" points="187.5,-165.5 187.5,-201.5 "/>
<text text-anchor="middle" x="228" y="-179.8" font-family="Times,serif" font-size="14.00">grad: 0.0</text>
</g>
<!-- 135591773101840* -->
<g id="node13" class="node">
<title>135591773101840*</title>
<ellipse fill="none" stroke="black" cx="401" cy="-128.5" rx="27" ry="18"/>
<text text-anchor="middle" x="401" y="-124.8" font-family="Times,serif" font-size="14.00">*</text>
</g>
<!-- 135591773582432&#45;&gt;135591773101840* -->
<g id="edge7" class="edge">
<title>135591773582432&#45;&gt;135591773101840*</title>
<path fill="none" stroke="black" d="M268.71,-172.11C291.72,-168.22 315.93,-163.13 338,-156.5 348.8,-153.26 360.17,-148.54 370.18,-143.89"/>
<polygon fill="black" stroke="black" points="371.8,-147 379.3,-139.52 368.77,-140.69 371.8,-147"/>
</g>
<!-- 135591773172352 -->
<g id="node2" class="node">
<title>135591773172352</title>
<polygon fill="none" stroke="black" points="962,-82.5 962,-118.5 1390,-118.5 1390,-82.5 962,-82.5"/>
<text text-anchor="middle" x="1026" y="-96.8" font-family="Times,serif" font-size="14.00">x1*w1 + x2*w2</text>
<polyline fill="none" stroke="black" points="1090,-82.5 1090,-118.5 "/>
<text text-anchor="middle" x="1132" y="-96.8" font-family="Times,serif" font-size="14.00">data: &#45;6.0</text>
<polyline fill="none" stroke="black" points="1174,-82.5 1174,-118.5 "/>
<text text-anchor="middle" x="1282" y="-96.8" font-family="Times,serif" font-size="14.00">grad: 0.4999999999999998</text>
</g>
<!-- 135591773174416+ -->
<g id="node5" class="node">
<title>135591773174416+</title>
<ellipse fill="none" stroke="black" cx="1463" cy="-72.5" rx="27" ry="18"/>
<text text-anchor="middle" x="1463" y="-68.8" font-family="Times,serif" font-size="14.00">+</text>
</g>
<!-- 135591773172352&#45;&gt;135591773174416+ -->
<g id="edge14" class="edge">
<title>135591773172352&#45;&gt;135591773174416+</title>
<path fill="none" stroke="black" d="M1360.32,-82.49C1385.13,-80.05 1408.14,-77.79 1425.97,-76.04"/>
<polygon fill="black" stroke="black" points="1426.5,-79.5 1436.11,-75.04 1425.82,-72.54 1426.5,-79.5"/>
</g>
<!-- 135591773172352+ -->
<g id="node3" class="node">
<title>135591773172352+</title>
<ellipse fill="none" stroke="black" cx="889" cy="-100.5" rx="27" ry="18"/>
<text text-anchor="middle" x="889" y="-96.8" font-family="Times,serif" font-size="14.00">+</text>
</g>
<!-- 135591773172352+&#45;&gt;135591773172352 -->
<g id="edge1" class="edge">
<title>135591773172352+&#45;&gt;135591773172352</title>
<path fill="none" stroke="black" d="M916.05,-100.5C925.89,-100.5 938.04,-100.5 951.67,-100.5"/>
<polygon fill="black" stroke="black" points="951.84,-104 961.84,-100.5 951.84,-97 951.84,-104"/>
</g>
<!-- 135591773174416 -->
<g id="node4" class="node">
<title>135591773174416</title>
<polygon fill="none" stroke="black" points="1526,-54.5 1526,-90.5 1983,-90.5 1983,-54.5 1526,-54.5"/>
<text text-anchor="middle" x="1539" y="-68.8" font-family="Times,serif" font-size="14.00">n</text>
<polyline fill="none" stroke="black" points="1552,-54.5 1552,-90.5 "/>
<text text-anchor="middle" x="1659.5" y="-68.8" font-family="Times,serif" font-size="14.00">data: 0.8813735870195432</text>
<polyline fill="none" stroke="black" points="1767,-54.5 1767,-90.5 "/>
<text text-anchor="middle" x="1875" y="-68.8" font-family="Times,serif" font-size="14.00">grad: 0.4999999999999998</text>
</g>
<!-- 135591773175040tanh -->
<g id="node11" class="node">
<title>135591773175040tanh</title>
<ellipse fill="none" stroke="black" cx="2050.85" cy="-72.5" rx="31.7" ry="18"/>
<text text-anchor="middle" x="2050.85" y="-68.8" font-family="Times,serif" font-size="14.00">tanh</text>
</g>
<!-- 135591773174416&#45;&gt;135591773175040tanh -->
<g id="edge12" class="edge">
<title>135591773174416&#45;&gt;135591773175040tanh</title>
<path fill="none" stroke="black" d="M1983.06,-72.5C1992.32,-72.5 2000.97,-72.5 2008.77,-72.5"/>
<polygon fill="black" stroke="black" points="2008.86,-76 2018.86,-72.5 2008.86,-69 2008.86,-76"/>
</g>
<!-- 135591773174416+&#45;&gt;135591773174416 -->
<g id="edge2" class="edge">
<title>135591773174416+&#45;&gt;135591773174416</title>
<path fill="none" stroke="black" d="M1490.2,-72.5C1497.54,-72.5 1506.15,-72.5 1515.7,-72.5"/>
<polygon fill="black" stroke="black" points="1515.98,-76 1525.98,-72.5 1515.98,-69 1515.98,-76"/>
</g>
<!-- 135591776778896 -->
<g id="node6" class="node">
<title>135591776778896</title>
<polygon fill="none" stroke="black" points="0,-55.5 0,-91.5 338,-91.5 338,-55.5 0,-55.5"/>
<text text-anchor="middle" x="19" y="-69.8" font-family="Times,serif" font-size="14.00">w1</text>
<polyline fill="none" stroke="black" points="38,-55.5 38,-91.5 "/>
<text text-anchor="middle" x="80" y="-69.8" font-family="Times,serif" font-size="14.00">data: &#45;3.0</text>
<polyline fill="none" stroke="black" points="122,-55.5 122,-91.5 "/>
<text text-anchor="middle" x="230" y="-69.8" font-family="Times,serif" font-size="14.00">grad: 0.9999999999999996</text>
</g>
<!-- 135591773585120* -->
<g id="node9" class="node">
<title>135591773585120*</title>
<ellipse fill="none" stroke="black" cx="401" cy="-73.5" rx="27" ry="18"/>
<text text-anchor="middle" x="401" y="-69.8" font-family="Times,serif" font-size="14.00">*</text>
</g>
<!-- 135591776778896&#45;&gt;135591773585120* -->
<g id="edge6" class="edge">
<title>135591776778896&#45;&gt;135591773585120*</title>
<path fill="none" stroke="black" d="M338.06,-73.5C347.23,-73.5 355.81,-73.5 363.51,-73.5"/>
<polygon fill="black" stroke="black" points="363.75,-77 373.75,-73.5 363.75,-70 363.75,-77"/>
</g>
<!-- 135591773582480 -->
<g id="node7" class="node">
<title>135591773582480</title>
<polygon fill="none" stroke="black" points="952,-27.5 952,-63.5 1400,-63.5 1400,-27.5 952,-27.5"/>
<text text-anchor="middle" x="965" y="-41.8" font-family="Times,serif" font-size="14.00">b</text>
<polyline fill="none" stroke="black" points="978,-27.5 978,-63.5 "/>
<text text-anchor="middle" x="1081" y="-41.8" font-family="Times,serif" font-size="14.00">data: 6.881373587019543</text>
<polyline fill="none" stroke="black" points="1184,-27.5 1184,-63.5 "/>
<text text-anchor="middle" x="1292" y="-41.8" font-family="Times,serif" font-size="14.00">grad: 0.4999999999999998</text>
</g>
<!-- 135591773582480&#45;&gt;135591773174416+ -->
<g id="edge9" class="edge">
<title>135591773582480&#45;&gt;135591773174416+</title>
<path fill="none" stroke="black" d="M1367.1,-63.51C1389.38,-65.62 1409.91,-67.56 1426.13,-69.1"/>
<polygon fill="black" stroke="black" points="1425.85,-72.59 1436.14,-70.05 1426.51,-65.62 1425.85,-72.59"/>
</g>
<!-- 135591773585120 -->
<g id="node8" class="node">
<title>135591773585120</title>
<polygon fill="none" stroke="black" points="464,-55.5 464,-91.5 826,-91.5 826,-55.5 464,-55.5"/>
<text text-anchor="middle" x="495" y="-69.8" font-family="Times,serif" font-size="14.00">x1*w1</text>
<polyline fill="none" stroke="black" points="526,-55.5 526,-91.5 "/>
<text text-anchor="middle" x="568" y="-69.8" font-family="Times,serif" font-size="14.00">data: &#45;6.0</text>
<polyline fill="none" stroke="black" points="610,-55.5 610,-91.5 "/>
<text text-anchor="middle" x="718" y="-69.8" font-family="Times,serif" font-size="14.00">grad: 0.4999999999999998</text>
</g>
<!-- 135591773585120&#45;&gt;135591773172352+ -->
<g id="edge13" class="edge">
<title>135591773585120&#45;&gt;135591773172352+</title>
<path fill="none" stroke="black" d="M807.42,-91.51C823.94,-93.35 839.34,-95.07 852.15,-96.5"/>
<polygon fill="black" stroke="black" points="851.94,-100 862.27,-97.63 852.72,-93.04 851.94,-100"/>
</g>
<!-- 135591773585120*&#45;&gt;135591773585120 -->
<g id="edge3" class="edge">
<title>135591773585120*&#45;&gt;135591773585120</title>
<path fill="none" stroke="black" d="M428.36,-73.5C435.72,-73.5 444.33,-73.5 453.79,-73.5"/>
<polygon fill="black" stroke="black" points="453.94,-77 463.94,-73.5 453.94,-70 453.94,-77"/>
</g>
<!-- 135591773175040 -->
<g id="node10" class="node">
<title>135591773175040</title>
<polygon fill="none" stroke="black" points="2118.69,-54.5 2118.69,-90.5 2439.69,-90.5 2439.69,-54.5 2118.69,-54.5"/>
<text text-anchor="middle" x="2131.19" y="-68.8" font-family="Times,serif" font-size="14.00">o</text>
<polyline fill="none" stroke="black" points="2143.69,-54.5 2143.69,-90.5 "/>
<text text-anchor="middle" x="2251.19" y="-68.8" font-family="Times,serif" font-size="14.00">data: 0.7071067811865477</text>
<polyline fill="none" stroke="black" points="2358.69,-54.5 2358.69,-90.5 "/>
<text text-anchor="middle" x="2399.19" y="-68.8" font-family="Times,serif" font-size="14.00">grad: 1.0</text>
</g>
<!-- 135591773175040tanh&#45;&gt;135591773175040 -->
<g id="edge4" class="edge">
<title>135591773175040tanh&#45;&gt;135591773175040</title>
<path fill="none" stroke="black" d="M2082.85,-72.5C2090.48,-72.5 2099.21,-72.5 2108.63,-72.5"/>
<polygon fill="black" stroke="black" points="2108.68,-76 2118.68,-72.5 2108.68,-69 2108.68,-76"/>
</g>
<!-- 135591773101840 -->
<g id="node12" class="node">
<title>135591773101840</title>
<polygon fill="none" stroke="black" points="466,-110.5 466,-146.5 824,-146.5 824,-110.5 466,-110.5"/>
<text text-anchor="middle" x="497" y="-124.8" font-family="Times,serif" font-size="14.00">x2*w2</text>
<polyline fill="none" stroke="black" points="528,-110.5 528,-146.5 "/>
<text text-anchor="middle" x="568" y="-124.8" font-family="Times,serif" font-size="14.00">data: 0.0</text>
<polyline fill="none" stroke="black" points="608,-110.5 608,-146.5 "/>
<text text-anchor="middle" x="716" y="-124.8" font-family="Times,serif" font-size="14.00">grad: 0.4999999999999998</text>
</g>
<!-- 135591773101840&#45;&gt;135591773172352+ -->
<g id="edge8" class="edge">
<title>135591773101840&#45;&gt;135591773172352+</title>
<path fill="none" stroke="black" d="M801.66,-110.49C820.23,-108.34 837.61,-106.33 851.84,-104.68"/>
<polygon fill="black" stroke="black" points="852.54,-108.13 862.08,-103.5 851.74,-101.17 852.54,-108.13"/>
</g>
<!-- 135591773101840*&#45;&gt;135591773101840 -->
<g id="edge5" class="edge">
<title>135591773101840*&#45;&gt;135591773101840</title>
<path fill="none" stroke="black" d="M428.36,-128.5C436.25,-128.5 445.57,-128.5 455.83,-128.5"/>
<polygon fill="black" stroke="black" points="455.94,-132 465.94,-128.5 455.94,-125 455.94,-132"/>
</g>
<!-- 135591776779568 -->
<g id="node14" class="node">
<title>135591776779568</title>
<polygon fill="none" stroke="black" points="1.5,-0.5 1.5,-36.5 336.5,-36.5 336.5,-0.5 1.5,-0.5"/>
<text text-anchor="middle" x="18.5" y="-14.8" font-family="Times,serif" font-size="14.00">x1</text>
<polyline fill="none" stroke="black" points="35.5,-0.5 35.5,-36.5 "/>
<text text-anchor="middle" x="75.5" y="-14.8" font-family="Times,serif" font-size="14.00">data: 2.0</text>
<polyline fill="none" stroke="black" points="115.5,-0.5 115.5,-36.5 "/>
<text text-anchor="middle" x="226" y="-14.8" font-family="Times,serif" font-size="14.00">grad: &#45;1.4999999999999993</text>
</g>
<!-- 135591776779568&#45;&gt;135591773585120* -->
<g id="edge10" class="edge">
<title>135591776779568&#45;&gt;135591773585120*</title>
<path fill="none" stroke="black" d="M298.25,-36.51C311.78,-39.41 325.24,-42.72 338,-46.5 348.66,-49.66 359.92,-54.18 369.88,-58.61"/>
<polygon fill="black" stroke="black" points="368.42,-61.79 378.96,-62.8 371.35,-55.44 368.42,-61.79"/>
</g>
<!-- 135591776778224 -->
<g id="node15" class="node">
<title>135591776778224</title>
<polygon fill="none" stroke="black" points="4,-110.5 4,-146.5 334,-146.5 334,-110.5 4,-110.5"/>
<text text-anchor="middle" x="21" y="-124.8" font-family="Times,serif" font-size="14.00">x2</text>
<polyline fill="none" stroke="black" points="38,-110.5 38,-146.5 "/>
<text text-anchor="middle" x="78" y="-124.8" font-family="Times,serif" font-size="14.00">data: 0.0</text>
<polyline fill="none" stroke="black" points="118,-110.5 118,-146.5 "/>
<text text-anchor="middle" x="226" y="-124.8" font-family="Times,serif" font-size="14.00">grad: 0.4999999999999998</text>
</g>
<!-- 135591776778224&#45;&gt;135591773101840* -->
<g id="edge11" class="edge">
<title>135591776778224&#45;&gt;135591773101840*</title>
<path fill="none" stroke="black" d="M334.09,-128.5C344.83,-128.5 354.86,-128.5 363.7,-128.5"/>
<polygon fill="black" stroke="black" points="363.85,-132 373.85,-128.5 363.85,-125 363.85,-132"/>
</g>
</g>
</svg>
