<?xml version="1.0" encoding="UTF-8" standalone="no"?>
<!DOCTYPE svg PUBLIC "-//W3C//DTD SVG 1.1//EN"
 "http://www.w3.org/Graphics/SVG/1.1/DTD/svg11.dtd">
<!-- Generated by graphviz version 2.43.0 (0)
 -->
<!-- Title: %3 Pages: 1 -->
<svg width="832pt" height="128pt"
 viewBox="0.00 0.00 832.00 128.00" xmlns="http://www.w3.org/2000/svg" xmlns:xlink="http://www.w3.org/1999/xlink">
<g id="graph0" class="graph" transform="scale(1 1) rotate(0) translate(4 124)">
<title>%3</title>
<polygon fill="white" stroke="transparent" points="-4,4 -4,-124 828,-124 828,4 -4,4"/>
<!-- 126922173318192 -->
<g id="node1" class="node">
<title>126922173318192</title>
<polygon fill="none" stroke="black" points="2.5,-83.5 2.5,-119.5 188.5,-119.5 188.5,-83.5 2.5,-83.5"/>
<text text-anchor="middle" x="15" y="-97.8" font-family="Times,serif" font-size="14.00">a</text>
<polyline fill="none" stroke="black" points="27.5,-83.5 27.5,-119.5 "/>
<text text-anchor="middle" x="67.5" y="-97.8" font-family="Times,serif" font-size="14.00">data: 2.0</text>
<polyline fill="none" stroke="black" points="107.5,-83.5 107.5,-119.5 "/>
<text text-anchor="middle" x="148" y="-97.8" font-family="Times,serif" font-size="14.00">grad: 1.0</text>
</g>
<!-- 126922173235104+ -->
<g id="node7" class="node">
<title>126922173235104+</title>
<ellipse fill="none" stroke="black" cx="254" cy="-73.5" rx="27" ry="18"/>
<text text-anchor="middle" x="254" y="-69.8" font-family="Times,serif" font-size="14.00">+</text>
</g>
<!-- 126922173318192&#45;&gt;126922173235104+ -->
<g id="edge4" class="edge">
<title>126922173318192&#45;&gt;126922173235104+</title>
<path fill="none" stroke="black" d="M188.89,-84.97C199.17,-83.13 209.11,-81.35 217.97,-79.77"/>
<polygon fill="black" stroke="black" points="218.6,-83.21 227.83,-78 217.37,-76.32 218.6,-83.21"/>
</g>
<!-- 126922173287488 -->
<g id="node2" class="node">
<title>126922173287488</title>
<polygon fill="none" stroke="black" points="637,-27.5 637,-63.5 824,-63.5 824,-27.5 637,-27.5"/>
<text text-anchor="middle" x="650" y="-41.8" font-family="Times,serif" font-size="14.00">L</text>
<polyline fill="none" stroke="black" points="663,-27.5 663,-63.5 "/>
<text text-anchor="middle" x="703" y="-41.8" font-family="Times,serif" font-size="14.00">data: 9.0</text>
<polyline fill="none" stroke="black" points="743,-27.5 743,-63.5 "/>
<text text-anchor="middle" x="783.5" y="-41.8" font-family="Times,serif" font-size="14.00">grad: 1.0</text>
</g>
<!-- 126922173287488+ -->
<g id="node3" class="node">
<title>126922173287488+</title>
<ellipse fill="none" stroke="black" cx="574" cy="-45.5" rx="27" ry="18"/>
<text text-anchor="middle" x="574" y="-41.8" font-family="Times,serif" font-size="14.00">+</text>
</g>
<!-- 126922173287488+&#45;&gt;126922173287488 -->
<g id="edge1" class="edge">
<title>126922173287488+&#45;&gt;126922173287488</title>
<path fill="none" stroke="black" d="M601.21,-45.5C608.73,-45.5 617.43,-45.5 626.67,-45.5"/>
<polygon fill="black" stroke="black" points="626.89,-49 636.89,-45.5 626.89,-42 626.89,-49"/>
</g>
<!-- 126922173319728 -->
<g id="node4" class="node">
<title>126922173319728</title>
<polygon fill="none" stroke="black" points="317,-0.5 317,-36.5 511,-36.5 511,-0.5 317,-0.5"/>
<text text-anchor="middle" x="329" y="-14.8" font-family="Times,serif" font-size="14.00">c</text>
<polyline fill="none" stroke="black" points="341,-0.5 341,-36.5 "/>
<text text-anchor="middle" x="385.5" y="-14.8" font-family="Times,serif" font-size="14.00">data: 10.0</text>
<polyline fill="none" stroke="black" points="430,-0.5 430,-36.5 "/>
<text text-anchor="middle" x="470.5" y="-14.8" font-family="Times,serif" font-size="14.00">grad: 1.0</text>
</g>
<!-- 126922173319728&#45;&gt;126922173287488+ -->
<g id="edge6" class="edge">
<title>126922173319728&#45;&gt;126922173287488+</title>
<path fill="none" stroke="black" d="M511.01,-34.91C520.35,-36.5 529.37,-38.04 537.49,-39.43"/>
<polygon fill="black" stroke="black" points="537.16,-42.93 547.6,-41.16 538.34,-36.03 537.16,-42.93"/>
</g>
<!-- 126922173320352 -->
<g id="node5" class="node">
<title>126922173320352</title>
<polygon fill="none" stroke="black" points="0,-28.5 0,-64.5 191,-64.5 191,-28.5 0,-28.5"/>
<text text-anchor="middle" x="13" y="-42.8" font-family="Times,serif" font-size="14.00">b</text>
<polyline fill="none" stroke="black" points="26,-28.5 26,-64.5 "/>
<text text-anchor="middle" x="68" y="-42.8" font-family="Times,serif" font-size="14.00">data: &#45;3.0</text>
<polyline fill="none" stroke="black" points="110,-28.5 110,-64.5 "/>
<text text-anchor="middle" x="150.5" y="-42.8" font-family="Times,serif" font-size="14.00">grad: 1.0</text>
</g>
<!-- 126922173320352&#45;&gt;126922173235104+ -->
<g id="edge3" class="edge">
<title>126922173320352&#45;&gt;126922173235104+</title>
<path fill="none" stroke="black" d="M191.15,-62.83C200.46,-64.44 209.44,-65.99 217.54,-67.38"/>
<polygon fill="black" stroke="black" points="217.19,-70.87 227.64,-69.12 218.38,-63.98 217.19,-70.87"/>
</g>
<!-- 126922173235104 -->
<g id="node6" class="node">
<title>126922173235104</title>
<polygon fill="none" stroke="black" points="318.5,-55.5 318.5,-91.5 509.5,-91.5 509.5,-55.5 318.5,-55.5"/>
<text text-anchor="middle" x="331.5" y="-69.8" font-family="Times,serif" font-size="14.00">d</text>
<polyline fill="none" stroke="black" points="344.5,-55.5 344.5,-91.5 "/>
<text text-anchor="middle" x="386.5" y="-69.8" font-family="Times,serif" font-size="14.00">data: &#45;1.0</text>
<polyline fill="none" stroke="black" points="428.5,-55.5 428.5,-91.5 "/>
<text text-anchor="middle" x="469" y="-69.8" font-family="Times,serif" font-size="14.00">grad: 1.0</text>
</g>
<!-- 126922173235104&#45;&gt;126922173287488+ -->
<g id="edge5" class="edge">
<title>126922173235104&#45;&gt;126922173287488+</title>
<path fill="none" stroke="black" d="M509.65,-56.73C519.55,-54.97 529.11,-53.28 537.68,-51.76"/>
<polygon fill="black" stroke="black" points="538.35,-55.19 547.59,-50 537.13,-48.3 538.35,-55.19"/>
</g>
<!-- 126922173235104+&#45;&gt;126922173235104 -->
<g id="edge2" class="edge">
<title>126922173235104+&#45;&gt;126922173235104</title>
<path fill="none" stroke="black" d="M281.09,-73.5C289.04,-73.5 298.32,-73.5 308.21,-73.5"/>
<polygon fill="black" stroke="black" points="308.27,-77 318.27,-73.5 308.27,-70 308.27,-77"/>
</g>
</g>
</svg>
