<?xml version="1.0" encoding="UTF-8" standalone="no"?>
<!DOCTYPE svg PUBLIC "-//W3C//DTD SVG 1.1//EN"
 "http://www.w3.org/Graphics/SVG/1.1/DTD/svg11.dtd">
<!-- Generated by graphviz version 2.43.0 (0)
 -->
<!-- Title: %3 Pages: 1 -->
<svg width="2448pt" height="210pt"
 viewBox="0.00 0.00 2447.69 210.00" xmlns="http://www.w3.org/2000/svg" xmlns:xlink="http://www.w3.org/1999/xlink">
<g id="graph0" class="graph" transform="scale(1 1) rotate(0) translate(4 206)">
<title>%3</title>
<polygon fill="white" stroke="transparent" points="-4,4 -4,-206 2443.69,-206 2443.69,4 -4,4"/>
<!-- 123884494744112 -->
<g id="node1" class="node">
<title>123884494744112</title>
<polygon fill="none" stroke="black" points="952,-137.5 952,-173.5 1400,-173.5 1400,-137.5 952,-137.5"/>
<text text-anchor="middle" x="965" y="-151.8" font-family="Times,serif" font-size="14.00">b</text>
<polyline fill="none" stroke="black" points="978,-137.5 978,-173.5 "/>
<text text-anchor="middle" x="1081" y="-151.8" font-family="Times,serif" font-size="14.00">data: 6.881373587019543</text>
<polyline fill="none" stroke="black" points="1184,-137.5 1184,-173.5 "/>
<text text-anchor="middle" x="1292" y="-151.8" font-family="Times,serif" font-size="14.00">grad: 0.4999999999999998</text>
</g>
<!-- 123884494207872+ -->
<g id="node10" class="node">
<title>123884494207872+</title>
<ellipse fill="none" stroke="black" cx="1463" cy="-127.5" rx="27" ry="18"/>
<text text-anchor="middle" x="1463" y="-123.8" font-family="Times,serif" font-size="14.00">+</text>
</g>
<!-- 123884494744112&#45;&gt;123884494207872+ -->
<g id="edge10" class="edge">
<title>123884494744112&#45;&gt;123884494207872+</title>
<path fill="none" stroke="black" d="M1360.32,-137.49C1385.13,-135.05 1408.14,-132.79 1425.97,-131.04"/>
<polygon fill="black" stroke="black" points="1426.5,-134.5 1436.11,-130.04 1425.82,-127.54 1426.5,-134.5"/>
</g>
<!-- 123884494902848 -->
<g id="node2" class="node">
<title>123884494902848</title>
<polygon fill="none" stroke="black" points="464,-110.5 464,-146.5 826,-146.5 826,-110.5 464,-110.5"/>
<text text-anchor="middle" x="495" y="-124.8" font-family="Times,serif" font-size="14.00">x1*w1</text>
<polyline fill="none" stroke="black" points="526,-110.5 526,-146.5 "/>
<text text-anchor="middle" x="568" y="-124.8" font-family="Times,serif" font-size="14.00">data: &#45;6.0</text>
<polyline fill="none" stroke="black" points="610,-110.5 610,-146.5 "/>
<text text-anchor="middle" x="718" y="-124.8" font-family="Times,serif" font-size="14.00">grad: 0.4999999999999998</text>
</g>
<!-- 123884494206912+ -->
<g id="node15" class="node">
<title>123884494206912+</title>
<ellipse fill="none" stroke="black" cx="889" cy="-100.5" rx="27" ry="18"/>
<text text-anchor="middle" x="889" y="-96.8" font-family="Times,serif" font-size="14.00">+</text>
</g>
<!-- 123884494902848&#45;&gt;123884494206912+ -->
<g id="edge6" class="edge">
<title>123884494902848&#45;&gt;123884494206912+</title>
<path fill="none" stroke="black" d="M801.66,-110.49C820.23,-108.34 837.61,-106.33 851.84,-104.68"/>
<polygon fill="black" stroke="black" points="852.54,-108.13 862.08,-103.5 851.74,-101.17 852.54,-108.13"/>
</g>
<!-- 123884494902848* -->
<g id="node3" class="node">
<title>123884494902848*</title>
<ellipse fill="none" stroke="black" cx="401" cy="-128.5" rx="27" ry="18"/>
<text text-anchor="middle" x="401" y="-124.8" font-family="Times,serif" font-size="14.00">*</text>
</g>
<!-- 123884494902848*&#45;&gt;123884494902848 -->
<g id="edge1" class="edge">
<title>123884494902848*&#45;&gt;123884494902848</title>
<path fill="none" stroke="black" d="M428.36,-128.5C435.72,-128.5 444.33,-128.5 453.79,-128.5"/>
<polygon fill="black" stroke="black" points="453.94,-132 463.94,-128.5 453.94,-125 453.94,-132"/>
</g>
<!-- 123884494935088 -->
<g id="node4" class="node">
<title>123884494935088</title>
<polygon fill="none" stroke="black" points="1.5,-165.5 1.5,-201.5 336.5,-201.5 336.5,-165.5 1.5,-165.5"/>
<text text-anchor="middle" x="18.5" y="-179.8" font-family="Times,serif" font-size="14.00">x1</text>
<polyline fill="none" stroke="black" points="35.5,-165.5 35.5,-201.5 "/>
<text text-anchor="middle" x="75.5" y="-179.8" font-family="Times,serif" font-size="14.00">data: 2.0</text>
<polyline fill="none" stroke="black" points="115.5,-165.5 115.5,-201.5 "/>
<text text-anchor="middle" x="226" y="-179.8" font-family="Times,serif" font-size="14.00">grad: &#45;1.4999999999999993</text>
</g>
<!-- 123884494935088&#45;&gt;123884494902848* -->
<g id="edge12" class="edge">
<title>123884494935088&#45;&gt;123884494902848*</title>
<path fill="none" stroke="black" d="M303.26,-165.43C315.1,-162.82 326.82,-159.86 338,-156.5 348.8,-153.26 360.17,-148.54 370.18,-143.89"/>
<polygon fill="black" stroke="black" points="371.8,-147 379.3,-139.52 368.77,-140.69 371.8,-147"/>
</g>
<!-- 123884494936624 -->
<g id="node5" class="node">
<title>123884494936624</title>
<polygon fill="none" stroke="black" points="0,-110.5 0,-146.5 338,-146.5 338,-110.5 0,-110.5"/>
<text text-anchor="middle" x="19" y="-124.8" font-family="Times,serif" font-size="14.00">w1</text>
<polyline fill="none" stroke="black" points="38,-110.5 38,-146.5 "/>
<text text-anchor="middle" x="80" y="-124.8" font-family="Times,serif" font-size="14.00">data: &#45;3.0</text>
<polyline fill="none" stroke="black" points="122,-110.5 122,-146.5 "/>
<text text-anchor="middle" x="230" y="-124.8" font-family="Times,serif" font-size="14.00">grad: 0.9999999999999996</text>
</g>
<!-- 123884494936624&#45;&gt;123884494902848* -->
<g id="edge8" class="edge">
<title>123884494936624&#45;&gt;123884494902848*</title>
<path fill="none" stroke="black" d="M338.06,-128.5C347.23,-128.5 355.81,-128.5 363.51,-128.5"/>
<polygon fill="black" stroke="black" points="363.75,-132 373.75,-128.5 363.75,-125 363.75,-132"/>
</g>
<!-- 123884494904480 -->
<g id="node6" class="node">
<title>123884494904480</title>
<polygon fill="none" stroke="black" points="466,-55.5 466,-91.5 824,-91.5 824,-55.5 466,-55.5"/>
<text text-anchor="middle" x="497" y="-69.8" font-family="Times,serif" font-size="14.00">x2*w2</text>
<polyline fill="none" stroke="black" points="528,-55.5 528,-91.5 "/>
<text text-anchor="middle" x="568" y="-69.8" font-family="Times,serif" font-size="14.00">data: 0.0</text>
<polyline fill="none" stroke="black" points="608,-55.5 608,-91.5 "/>
<text text-anchor="middle" x="716" y="-69.8" font-family="Times,serif" font-size="14.00">grad: 0.4999999999999998</text>
</g>
<!-- 123884494904480&#45;&gt;123884494206912+ -->
<g id="edge11" class="edge">
<title>123884494904480&#45;&gt;123884494206912+</title>
<path fill="none" stroke="black" d="M807.42,-91.51C823.94,-93.35 839.34,-95.07 852.15,-96.5"/>
<polygon fill="black" stroke="black" points="851.94,-100 862.27,-97.63 852.72,-93.04 851.94,-100"/>
</g>
<!-- 123884494904480* -->
<g id="node7" class="node">
<title>123884494904480*</title>
<ellipse fill="none" stroke="black" cx="401" cy="-73.5" rx="27" ry="18"/>
<text text-anchor="middle" x="401" y="-69.8" font-family="Times,serif" font-size="14.00">*</text>
</g>
<!-- 123884494904480*&#45;&gt;123884494904480 -->
<g id="edge2" class="edge">
<title>123884494904480*&#45;&gt;123884494904480</title>
<path fill="none" stroke="black" d="M428.36,-73.5C436.25,-73.5 445.57,-73.5 455.83,-73.5"/>
<polygon fill="black" stroke="black" points="455.94,-77 465.94,-73.5 455.94,-70 455.94,-77"/>
</g>
<!-- 123884494937248 -->
<g id="node8" class="node">
<title>123884494937248</title>
<polygon fill="none" stroke="black" points="4,-55.5 4,-91.5 334,-91.5 334,-55.5 4,-55.5"/>
<text text-anchor="middle" x="21" y="-69.8" font-family="Times,serif" font-size="14.00">x2</text>
<polyline fill="none" stroke="black" points="38,-55.5 38,-91.5 "/>
<text text-anchor="middle" x="78" y="-69.8" font-family="Times,serif" font-size="14.00">data: 0.0</text>
<polyline fill="none" stroke="black" points="118,-55.5 118,-91.5 "/>
<text text-anchor="middle" x="226" y="-69.8" font-family="Times,serif" font-size="14.00">grad: 0.4999999999999998</text>
</g>
<!-- 123884494937248&#45;&gt;123884494904480* -->
<g id="edge14" class="edge">
<title>123884494937248&#45;&gt;123884494904480*</title>
<path fill="none" stroke="black" d="M334.09,-73.5C344.83,-73.5 354.86,-73.5 363.7,-73.5"/>
<polygon fill="black" stroke="black" points="363.85,-77 373.85,-73.5 363.85,-70 363.85,-77"/>
</g>
<!-- 123884494207872 -->
<g id="node9" class="node">
<title>123884494207872</title>
<polygon fill="none" stroke="black" points="1526,-109.5 1526,-145.5 1983,-145.5 1983,-109.5 1526,-109.5"/>
<text text-anchor="middle" x="1539" y="-123.8" font-family="Times,serif" font-size="14.00">n</text>
<polyline fill="none" stroke="black" points="1552,-109.5 1552,-145.5 "/>
<text text-anchor="middle" x="1659.5" y="-123.8" font-family="Times,serif" font-size="14.00">data: 0.8813735870195432</text>
<polyline fill="none" stroke="black" points="1767,-109.5 1767,-145.5 "/>
<text text-anchor="middle" x="1875" y="-123.8" font-family="Times,serif" font-size="14.00">grad: 0.4999999999999998</text>
</g>
<!-- 123884494263728tanh -->
<g id="node13" class="node">
<title>123884494263728tanh</title>
<ellipse fill="none" stroke="black" cx="2050.85" cy="-127.5" rx="31.7" ry="18"/>
<text text-anchor="middle" x="2050.85" y="-123.8" font-family="Times,serif" font-size="14.00">tanh</text>
</g>
<!-- 123884494207872&#45;&gt;123884494263728tanh -->
<g id="edge13" class="edge">
<title>123884494207872&#45;&gt;123884494263728tanh</title>
<path fill="none" stroke="black" d="M1983.06,-127.5C1992.32,-127.5 2000.97,-127.5 2008.77,-127.5"/>
<polygon fill="black" stroke="black" points="2008.86,-131 2018.86,-127.5 2008.86,-124 2008.86,-131"/>
</g>
<!-- 123884494207872+&#45;&gt;123884494207872 -->
<g id="edge3" class="edge">
<title>123884494207872+&#45;&gt;123884494207872</title>
<path fill="none" stroke="black" d="M1490.2,-127.5C1497.54,-127.5 1506.15,-127.5 1515.7,-127.5"/>
<polygon fill="black" stroke="black" points="1515.98,-131 1525.98,-127.5 1515.98,-124 1515.98,-131"/>
</g>
<!-- 123884494744976 -->
<g id="node11" class="node">
<title>123884494744976</title>
<polygon fill="none" stroke="black" points="69.5,-0.5 69.5,-36.5 268.5,-36.5 268.5,-0.5 69.5,-0.5"/>
<text text-anchor="middle" x="88.5" y="-14.8" font-family="Times,serif" font-size="14.00">w2</text>
<polyline fill="none" stroke="black" points="107.5,-0.5 107.5,-36.5 "/>
<text text-anchor="middle" x="147.5" y="-14.8" font-family="Times,serif" font-size="14.00">data: 1.0</text>
<polyline fill="none" stroke="black" points="187.5,-0.5 187.5,-36.5 "/>
<text text-anchor="middle" x="228" y="-14.8" font-family="Times,serif" font-size="14.00">grad: 0.0</text>
</g>
<!-- 123884494744976&#45;&gt;123884494904480* -->
<g id="edge9" class="edge">
<title>123884494744976&#45;&gt;123884494904480*</title>
<path fill="none" stroke="black" d="M268.64,-30.79C291.65,-34.79 315.89,-39.95 338,-46.5 348.66,-49.66 359.92,-54.18 369.88,-58.61"/>
<polygon fill="black" stroke="black" points="368.42,-61.79 378.96,-62.8 371.35,-55.44 368.42,-61.79"/>
</g>
<!-- 123884494263728 -->
<g id="node12" class="node">
<title>123884494263728</title>
<polygon fill="none" stroke="black" points="2118.69,-109.5 2118.69,-145.5 2439.69,-145.5 2439.69,-109.5 2118.69,-109.5"/>
<text text-anchor="middle" x="2131.19" y="-123.8" font-family="Times,serif" font-size="14.00">o</text>
<polyline fill="none" stroke="black" points="2143.69,-109.5 2143.69,-145.5 "/>
<text text-anchor="middle" x="2251.19" y="-123.8" font-family="Times,serif" font-size="14.00">data: 0.7071067811865477</text>
<polyline fill="none" stroke="black" points="2358.69,-109.5 2358.69,-145.5 "/>
<text text-anchor="middle" x="2399.19" y="-123.8" font-family="Times,serif" font-size="14.00">grad: 1.0</text>
</g>
<!-- 123884494263728tanh&#45;&gt;123884494263728 -->
<g id="edge4" class="edge">
<title>123884494263728tanh&#45;&gt;123884494263728</title>
<path fill="none" stroke="black" d="M2082.85,-127.5C2090.48,-127.5 2099.21,-127.5 2108.63,-127.5"/>
<polygon fill="black" stroke="black" points="2108.68,-131 2118.68,-127.5 2108.68,-124 2108.68,-131"/>
</g>
<!-- 123884494206912 -->
<g id="node14" class="node">
<title>123884494206912</title>
<polygon fill="none" stroke="black" points="962,-82.5 962,-118.5 1390,-118.5 1390,-82.5 962,-82.5"/>
<text text-anchor="middle" x="1026" y="-96.8" font-family="Times,serif" font-size="14.00">x1*w1 + x2*w2</text>
<polyline fill="none" stroke="black" points="1090,-82.5 1090,-118.5 "/>
<text text-anchor="middle" x="1132" y="-96.8" font-family="Times,serif" font-size="14.00">data: &#45;6.0</text>
<polyline fill="none" stroke="black" points="1174,-82.5 1174,-118.5 "/>
<text text-anchor="middle" x="1282" y="-96.8" font-family="Times,serif" font-size="14.00">grad: 0.4999999999999998</text>
</g>
<!-- 123884494206912&#45;&gt;123884494207872+ -->
<g id="edge7" class="edge">
<title>123884494206912&#45;&gt;123884494207872+</title>
<path fill="none" stroke="black" d="M1367.1,-118.51C1389.38,-120.62 1409.91,-122.56 1426.13,-124.1"/>
<polygon fill="black" stroke="black" points="1425.85,-127.59 1436.14,-125.05 1426.51,-120.62 1425.85,-127.59"/>
</g>
<!-- 123884494206912+&#45;&gt;123884494206912 -->
<g id="edge5" class="edge">
<title>123884494206912+&#45;&gt;123884494206912</title>
<path fill="none" stroke="black" d="M916.05,-100.5C925.89,-100.5 938.04,-100.5 951.67,-100.5"/>
<polygon fill="black" stroke="black" points="951.84,-104 961.84,-100.5 951.84,-97 951.84,-104"/>
</g>
</g>
</svg>
