<?xml version="1.0" encoding="UTF-8" standalone="no"?>
<!DOCTYPE svg PUBLIC "-//W3C//DTD SVG 1.1//EN"
 "http://www.w3.org/Graphics/SVG/1.1/DTD/svg11.dtd">
<!-- Generated by graphviz version 2.43.0 (0)
 -->
<!-- Title: %3 Pages: 1 -->
<svg width="506pt" height="45pt"
 viewBox="0.00 0.00 506.00 45.00" xmlns="http://www.w3.org/2000/svg" xmlns:xlink="http://www.w3.org/1999/xlink">
<g id="graph0" class="graph" transform="scale(1 1) rotate(0) translate(4 41)">
<title>%3</title>
<polygon fill="white" stroke="transparent" points="-4,4 -4,-41 502,-41 502,4 -4,4"/>
<!-- 126575413691440 -->
<g id="node1" class="node">
<title>126575413691440</title>
<polygon fill="none" stroke="black" points="0,-0.5 0,-36.5 186,-36.5 186,-0.5 0,-0.5"/>
<text text-anchor="middle" x="12.5" y="-14.8" font-family="Times,serif" font-size="14.00">x</text>
<polyline fill="none" stroke="black" points="25,-0.5 25,-36.5 "/>
<text text-anchor="middle" x="65" y="-14.8" font-family="Times,serif" font-size="14.00">data: 3.0</text>
<polyline fill="none" stroke="black" points="105,-0.5 105,-36.5 "/>
<text text-anchor="middle" x="145.5" y="-14.8" font-family="Times,serif" font-size="14.00">grad: 2.0</text>
</g>
<!-- 126575413501520+ -->
<g id="node3" class="node">
<title>126575413501520+</title>
<ellipse fill="none" stroke="black" cx="249" cy="-18.5" rx="27" ry="18"/>
<text text-anchor="middle" x="249" y="-14.8" font-family="Times,serif" font-size="14.00">+</text>
</g>
<!-- 126575413691440&#45;&gt;126575413501520+ -->
<g id="edge2" class="edge">
<title>126575413691440&#45;&gt;126575413501520+</title>
<path fill="none" stroke="black" d="M186.25,-18.5C195.15,-18.5 203.76,-18.5 211.59,-18.5"/>
<polygon fill="black" stroke="black" points="211.73,-22 221.73,-18.5 211.73,-15 211.73,-22"/>
</g>
<!-- 126575413501520 -->
<g id="node2" class="node">
<title>126575413501520</title>
<polygon fill="none" stroke="black" points="312,-0.5 312,-36.5 498,-36.5 498,-0.5 312,-0.5"/>
<text text-anchor="middle" x="324.5" y="-14.8" font-family="Times,serif" font-size="14.00">y</text>
<polyline fill="none" stroke="black" points="337,-0.5 337,-36.5 "/>
<text text-anchor="middle" x="377" y="-14.8" font-family="Times,serif" font-size="14.00">data: 6.0</text>
<polyline fill="none" stroke="black" points="417,-0.5 417,-36.5 "/>
<text text-anchor="middle" x="457.5" y="-14.8" font-family="Times,serif" font-size="14.00">grad: 1.0</text>
</g>
<!-- 126575413501520+&#45;&gt;126575413501520 -->
<g id="edge1" class="edge">
<title>126575413501520+&#45;&gt;126575413501520</title>
<path fill="none" stroke="black" d="M276.12,-18.5C283.62,-18.5 292.29,-18.5 301.5,-18.5"/>
<polygon fill="black" stroke="black" points="301.69,-22 311.69,-18.5 301.69,-15 301.69,-22"/>
</g>
</g>
</svg>
