<?xml version="1.0" encoding="UTF-8" standalone="no"?>
<!DOCTYPE svg PUBLIC "-//W3C//DTD SVG 1.1//EN"
 "http://www.w3.org/Graphics/SVG/1.1/DTD/svg11.dtd">
<!-- Generated by graphviz version 2.43.0 (0)
 -->
<!-- Title: %3 Pages: 1 -->
<svg width="4430pt" height="236pt"
 viewBox="0.00 0.00 4429.60 236.00" xmlns="http://www.w3.org/2000/svg" xmlns:xlink="http://www.w3.org/1999/xlink">
<g id="graph0" class="graph" transform="scale(1 1) rotate(0) translate(4 232)">
<title>%3</title>
<polygon fill="white" stroke="transparent" points="-4,4 -4,-232 4425.6,-232 4425.6,4 -4,4"/>
<!-- 124305316575312 -->
<g id="node1" class="node">
<title>124305316575312</title>
<polygon fill="none" stroke="black" points="2622.6,-53.5 2622.6,-89.5 3058.6,-89.5 3058.6,-53.5 2622.6,-53.5"/>
<text text-anchor="middle" x="2725.6" y="-67.8" font-family="Times,serif" font-size="14.00">data: 6.828427124746192</text>
<polyline fill="none" stroke="black" points="2828.6,-53.5 2828.6,-89.5 "/>
<text text-anchor="middle" x="2943.6" y="-67.8" font-family="Times,serif" font-size="14.00">grad: &#45;0.10355339059327374</text>
</g>
<!-- 124305316414848**&#45;1 -->
<g id="node20" class="node">
<title>124305316414848**&#45;1</title>
<ellipse fill="none" stroke="black" cx="3305.6" cy="-71.5" rx="28.7" ry="18"/>
<text text-anchor="middle" x="3305.6" y="-67.8" font-family="Times,serif" font-size="14.00">**&#45;1</text>
</g>
<!-- 124305316575312&#45;&gt;124305316414848**&#45;1 -->
<g id="edge13" class="edge">
<title>124305316575312&#45;&gt;124305316414848**&#45;1</title>
<path fill="none" stroke="black" d="M3058.86,-71.5C3138.42,-71.5 3220.23,-71.5 3266.51,-71.5"/>
<polygon fill="black" stroke="black" points="3266.67,-75 3276.67,-71.5 3266.66,-68 3266.67,-75"/>
</g>
<!-- 124305316575312+ -->
<g id="node2" class="node">
<title>124305316575312+</title>
<ellipse fill="none" stroke="black" cx="2559.6" cy="-71.5" rx="27" ry="18"/>
<text text-anchor="middle" x="2559.6" y="-67.8" font-family="Times,serif" font-size="14.00">+</text>
</g>
<!-- 124305316575312+&#45;&gt;124305316575312 -->
<g id="edge1" class="edge">
<title>124305316575312+&#45;&gt;124305316575312</title>
<path fill="none" stroke="black" d="M2586.84,-71.5C2594.14,-71.5 2602.7,-71.5 2612.17,-71.5"/>
<polygon fill="black" stroke="black" points="2612.35,-75 2622.35,-71.5 2612.35,-68 2612.35,-75"/>
</g>
<!-- 124305316559024 -->
<g id="node3" class="node">
<title>124305316559024</title>
<polygon fill="none" stroke="black" points="2098.6,-136.5 2098.6,-172.5 2398.6,-172.5 2398.6,-136.5 2098.6,-136.5"/>
<text text-anchor="middle" x="2140.6" y="-150.8" font-family="Times,serif" font-size="14.00">data: &#45;1.0</text>
<polyline fill="none" stroke="black" points="2182.6,-136.5 2182.6,-172.5 "/>
<text text-anchor="middle" x="2290.6" y="-150.8" font-family="Times,serif" font-size="14.00">grad: 0.1464466094067262</text>
</g>
<!-- 124305316559744+ -->
<g id="node12" class="node">
<title>124305316559744+</title>
<ellipse fill="none" stroke="black" cx="2559.6" cy="-126.5" rx="27" ry="18"/>
<text text-anchor="middle" x="2559.6" y="-122.8" font-family="Times,serif" font-size="14.00">+</text>
</g>
<!-- 124305316559024&#45;&gt;124305316559744+ -->
<g id="edge17" class="edge">
<title>124305316559024&#45;&gt;124305316559744+</title>
<path fill="none" stroke="black" d="M2398.66,-140.99C2444.77,-136.81 2491.53,-132.58 2522.48,-129.77"/>
<polygon fill="black" stroke="black" points="2523.09,-133.23 2532.74,-128.84 2522.46,-126.26 2523.09,-133.23"/>
</g>
<!-- 124305316559024* -->
<g id="node4" class="node">
<title>124305316559024*</title>
<ellipse fill="none" stroke="black" cx="1937.3" cy="-154.5" rx="27" ry="18"/>
<text text-anchor="middle" x="1937.3" y="-150.8" font-family="Times,serif" font-size="14.00">*</text>
</g>
<!-- 124305316559024*&#45;&gt;124305316559024 -->
<g id="edge2" class="edge">
<title>124305316559024*&#45;&gt;124305316559024</title>
<path fill="none" stroke="black" d="M1964.4,-154.5C1992.61,-154.5 2040.02,-154.5 2088.05,-154.5"/>
<polygon fill="black" stroke="black" points="2088.31,-158 2098.31,-154.5 2088.31,-151 2088.31,-158"/>
</g>
<!-- 124305316415904 -->
<g id="node5" class="node">
<title>124305316415904</title>
<polygon fill="none" stroke="black" points="4100.6,-80.5 4100.6,-116.5 4421.6,-116.5 4421.6,-80.5 4100.6,-80.5"/>
<text text-anchor="middle" x="4113.1" y="-94.8" font-family="Times,serif" font-size="14.00">o</text>
<polyline fill="none" stroke="black" points="4125.6,-80.5 4125.6,-116.5 "/>
<text text-anchor="middle" x="4233.1" y="-94.8" font-family="Times,serif" font-size="14.00">data: 0.7071067811865477</text>
<polyline fill="none" stroke="black" points="4340.6,-80.5 4340.6,-116.5 "/>
<text text-anchor="middle" x="4381.1" y="-94.8" font-family="Times,serif" font-size="14.00">grad: 1.0</text>
</g>
<!-- 124305316415904* -->
<g id="node6" class="node">
<title>124305316415904*</title>
<ellipse fill="none" stroke="black" cx="4037.6" cy="-98.5" rx="27" ry="18"/>
<text text-anchor="middle" x="4037.6" y="-94.8" font-family="Times,serif" font-size="14.00">*</text>
</g>
<!-- 124305316415904*&#45;&gt;124305316415904 -->
<g id="edge3" class="edge">
<title>124305316415904*&#45;&gt;124305316415904</title>
<path fill="none" stroke="black" d="M4064.87,-98.5C4072.27,-98.5 4080.91,-98.5 4090.36,-98.5"/>
<polygon fill="black" stroke="black" points="4090.48,-102 4100.48,-98.5 4090.48,-95 4090.48,-102"/>
</g>
<!-- 124305321323056 -->
<g id="node7" class="node">
<title>124305321323056</title>
<polygon fill="none" stroke="black" points="682,-137.5 682,-173.5 995,-173.5 995,-137.5 682,-137.5"/>
<text text-anchor="middle" x="695" y="-151.8" font-family="Times,serif" font-size="14.00">b</text>
<polyline fill="none" stroke="black" points="708,-137.5 708,-173.5 "/>
<text text-anchor="middle" x="811" y="-151.8" font-family="Times,serif" font-size="14.00">data: 6.881373587019543</text>
<polyline fill="none" stroke="black" points="914,-137.5 914,-173.5 "/>
<text text-anchor="middle" x="954.5" y="-151.8" font-family="Times,serif" font-size="14.00">grad: 0.5</text>
</g>
<!-- 124305316330368+ -->
<g id="node10" class="node">
<title>124305316330368+</title>
<ellipse fill="none" stroke="black" cx="1058" cy="-127.5" rx="27" ry="18"/>
<text text-anchor="middle" x="1058" y="-123.8" font-family="Times,serif" font-size="14.00">+</text>
</g>
<!-- 124305321323056&#45;&gt;124305316330368+ -->
<g id="edge15" class="edge">
<title>124305321323056&#45;&gt;124305316330368+</title>
<path fill="none" stroke="black" d="M979.4,-137.49C994.71,-135.52 1009.11,-133.66 1021.26,-132.1"/>
<polygon fill="black" stroke="black" points="1021.85,-135.55 1031.32,-130.81 1020.96,-128.61 1021.85,-135.55"/>
</g>
<!-- 124305321515568 -->
<g id="node8" class="node">
<title>124305321515568</title>
<polygon fill="none" stroke="black" points="0,-55.5 0,-91.5 203,-91.5 203,-55.5 0,-55.5"/>
<text text-anchor="middle" x="19" y="-69.8" font-family="Times,serif" font-size="14.00">w1</text>
<polyline fill="none" stroke="black" points="38,-55.5 38,-91.5 "/>
<text text-anchor="middle" x="80" y="-69.8" font-family="Times,serif" font-size="14.00">data: &#45;3.0</text>
<polyline fill="none" stroke="black" points="122,-55.5 122,-91.5 "/>
<text text-anchor="middle" x="162.5" y="-69.8" font-family="Times,serif" font-size="14.00">grad: 1.0</text>
</g>
<!-- 124305321481792* -->
<g id="node24" class="node">
<title>124305321481792*</title>
<ellipse fill="none" stroke="black" cx="266" cy="-73.5" rx="27" ry="18"/>
<text text-anchor="middle" x="266" y="-69.8" font-family="Times,serif" font-size="14.00">*</text>
</g>
<!-- 124305321515568&#45;&gt;124305321481792* -->
<g id="edge12" class="edge">
<title>124305321515568&#45;&gt;124305321481792*</title>
<path fill="none" stroke="black" d="M203.1,-73.5C212.12,-73.5 220.8,-73.5 228.66,-73.5"/>
<polygon fill="black" stroke="black" points="228.83,-77 238.83,-73.5 228.83,-70 228.83,-77"/>
</g>
<!-- 124305316330368 -->
<g id="node9" class="node">
<title>124305316330368</title>
<polygon fill="none" stroke="black" points="1121,-109.5 1121,-145.5 1443,-145.5 1443,-109.5 1121,-109.5"/>
<text text-anchor="middle" x="1134" y="-123.8" font-family="Times,serif" font-size="14.00">n</text>
<polyline fill="none" stroke="black" points="1147,-109.5 1147,-145.5 "/>
<text text-anchor="middle" x="1254.5" y="-123.8" font-family="Times,serif" font-size="14.00">data: 0.8813735870195432</text>
<polyline fill="none" stroke="black" points="1362,-109.5 1362,-145.5 "/>
<text text-anchor="middle" x="1402.5" y="-123.8" font-family="Times,serif" font-size="14.00">grad: 0.5</text>
</g>
<!-- 124305316382704* -->
<g id="node31" class="node">
<title>124305316382704*</title>
<ellipse fill="none" stroke="black" cx="1506" cy="-99.5" rx="27" ry="18"/>
<text text-anchor="middle" x="1506" y="-95.8" font-family="Times,serif" font-size="14.00">*</text>
</g>
<!-- 124305316330368&#45;&gt;124305316382704* -->
<g id="edge16" class="edge">
<title>124305316330368&#45;&gt;124305316382704*</title>
<path fill="none" stroke="black" d="M1425.79,-109.49C1441.71,-107.48 1456.67,-105.6 1469.21,-104.01"/>
<polygon fill="black" stroke="black" points="1469.66,-107.48 1479.14,-102.76 1468.79,-100.54 1469.66,-107.48"/>
</g>
<!-- 124305316330368+&#45;&gt;124305316330368 -->
<g id="edge4" class="edge">
<title>124305316330368+&#45;&gt;124305316330368</title>
<path fill="none" stroke="black" d="M1085.34,-127.5C1092.67,-127.5 1101.21,-127.5 1110.55,-127.5"/>
<polygon fill="black" stroke="black" points="1110.56,-131 1120.56,-127.5 1110.56,-124 1110.56,-131"/>
</g>
<!-- 124305316559744 -->
<g id="node11" class="node">
<title>124305316559744</title>
<polygon fill="none" stroke="black" points="3094.6,-108.5 3094.6,-144.5 3516.6,-144.5 3516.6,-108.5 3094.6,-108.5"/>
<text text-anchor="middle" x="3197.6" y="-122.8" font-family="Times,serif" font-size="14.00">data: 4.828427124746192</text>
<polyline fill="none" stroke="black" points="3300.6,-108.5 3300.6,-144.5 "/>
<text text-anchor="middle" x="3408.6" y="-122.8" font-family="Times,serif" font-size="14.00">grad: 0.1464466094067262</text>
</g>
<!-- 124305316559744&#45;&gt;124305316415904* -->
<g id="edge22" class="edge">
<title>124305316559744&#45;&gt;124305316415904*</title>
<path fill="none" stroke="black" d="M3516.89,-120.48C3648.46,-116.33 3821.46,-110.19 3974.6,-102.5 3983.02,-102.08 3992.08,-101.54 4000.61,-101"/>
<polygon fill="black" stroke="black" points="4000.91,-104.48 4010.66,-100.34 4000.45,-97.5 4000.91,-104.48"/>
</g>
<!-- 124305316559744+&#45;&gt;124305316559744 -->
<g id="edge5" class="edge">
<title>124305316559744+&#45;&gt;124305316559744</title>
<path fill="none" stroke="black" d="M2586.64,-126.5C2664.83,-126.5 2903.28,-126.5 3084.11,-126.5"/>
<polygon fill="black" stroke="black" points="3084.31,-130 3094.31,-126.5 3084.31,-123 3084.31,-130"/>
</g>
<!-- 124305321514032 -->
<g id="node13" class="node">
<title>124305321514032</title>
<polygon fill="none" stroke="black" points="1.5,-0.5 1.5,-36.5 201.5,-36.5 201.5,-0.5 1.5,-0.5"/>
<text text-anchor="middle" x="18.5" y="-14.8" font-family="Times,serif" font-size="14.00">x1</text>
<polyline fill="none" stroke="black" points="35.5,-0.5 35.5,-36.5 "/>
<text text-anchor="middle" x="75.5" y="-14.8" font-family="Times,serif" font-size="14.00">data: 2.0</text>
<polyline fill="none" stroke="black" points="115.5,-0.5 115.5,-36.5 "/>
<text text-anchor="middle" x="158.5" y="-14.8" font-family="Times,serif" font-size="14.00">grad: &#45;1.5</text>
</g>
<!-- 124305321514032&#45;&gt;124305321481792* -->
<g id="edge24" class="edge">
<title>124305321514032&#45;&gt;124305321481792*</title>
<path fill="none" stroke="black" d="M175.12,-36.51C184.57,-39.29 194.07,-42.31 203,-45.5 213.53,-49.27 224.76,-54.08 234.73,-58.65"/>
<polygon fill="black" stroke="black" points="233.29,-61.84 243.83,-62.91 236.26,-55.5 233.29,-61.84"/>
</g>
<!-- 124305321483424 -->
<g id="node14" class="node">
<title>124305321483424</title>
<polygon fill="none" stroke="black" points="331,-110.5 331,-146.5 554,-146.5 554,-110.5 331,-110.5"/>
<text text-anchor="middle" x="362" y="-124.8" font-family="Times,serif" font-size="14.00">x2*w2</text>
<polyline fill="none" stroke="black" points="393,-110.5 393,-146.5 "/>
<text text-anchor="middle" x="433" y="-124.8" font-family="Times,serif" font-size="14.00">data: 0.0</text>
<polyline fill="none" stroke="black" points="473,-110.5 473,-146.5 "/>
<text text-anchor="middle" x="513.5" y="-124.8" font-family="Times,serif" font-size="14.00">grad: 0.5</text>
</g>
<!-- 124305316329408+ -->
<g id="node29" class="node">
<title>124305316329408+</title>
<ellipse fill="none" stroke="black" cx="619" cy="-100.5" rx="27" ry="18"/>
<text text-anchor="middle" x="619" y="-96.8" font-family="Times,serif" font-size="14.00">+</text>
</g>
<!-- 124305321483424&#45;&gt;124305316329408+ -->
<g id="edge29" class="edge">
<title>124305321483424&#45;&gt;124305316329408+</title>
<path fill="none" stroke="black" d="M554.01,-110.77C564.21,-109.13 573.95,-107.57 582.61,-106.18"/>
<polygon fill="black" stroke="black" points="583.29,-109.61 592.61,-104.57 582.18,-102.7 583.29,-109.61"/>
</g>
<!-- 124305321483424* -->
<g id="node15" class="node">
<title>124305321483424*</title>
<ellipse fill="none" stroke="black" cx="266" cy="-128.5" rx="27" ry="18"/>
<text text-anchor="middle" x="266" y="-124.8" font-family="Times,serif" font-size="14.00">*</text>
</g>
<!-- 124305321483424*&#45;&gt;124305321483424 -->
<g id="edge6" class="edge">
<title>124305321483424*&#45;&gt;124305321483424</title>
<path fill="none" stroke="black" d="M293.12,-128.5C301.11,-128.5 310.47,-128.5 320.54,-128.5"/>
<polygon fill="black" stroke="black" points="320.82,-132 330.82,-128.5 320.82,-125 320.82,-132"/>
</g>
<!-- 124305321516192 -->
<g id="node16" class="node">
<title>124305321516192</title>
<polygon fill="none" stroke="black" points="4,-165.5 4,-201.5 199,-201.5 199,-165.5 4,-165.5"/>
<text text-anchor="middle" x="21" y="-179.8" font-family="Times,serif" font-size="14.00">x2</text>
<polyline fill="none" stroke="black" points="38,-165.5 38,-201.5 "/>
<text text-anchor="middle" x="78" y="-179.8" font-family="Times,serif" font-size="14.00">data: 0.0</text>
<polyline fill="none" stroke="black" points="118,-165.5 118,-201.5 "/>
<text text-anchor="middle" x="158.5" y="-179.8" font-family="Times,serif" font-size="14.00">grad: 0.5</text>
</g>
<!-- 124305321516192&#45;&gt;124305321483424* -->
<g id="edge30" class="edge">
<title>124305321516192&#45;&gt;124305321483424*</title>
<path fill="none" stroke="black" d="M175.12,-165.49C184.57,-162.71 194.07,-159.69 203,-156.5 213.53,-152.73 224.76,-147.92 234.73,-143.35"/>
<polygon fill="black" stroke="black" points="236.26,-146.5 243.83,-139.09 233.29,-140.16 236.26,-146.5"/>
</g>
<!-- 124305316558112 -->
<g id="node17" class="node">
<title>124305316558112</title>
<polygon fill="none" stroke="black" points="1571,-191.5 1571,-227.5 1872,-227.5 1872,-191.5 1571,-191.5"/>
<text text-anchor="middle" x="1611" y="-205.8" font-family="Times,serif" font-size="14.00">data: 1.0</text>
<polyline fill="none" stroke="black" points="1651,-191.5 1651,-227.5 "/>
<text text-anchor="middle" x="1761.5" y="-205.8" font-family="Times,serif" font-size="14.00">grad: &#45;0.1464466094067262</text>
</g>
<!-- 124305316558112&#45;&gt;124305316559024* -->
<g id="edge27" class="edge">
<title>124305316558112&#45;&gt;124305316559024*</title>
<path fill="none" stroke="black" d="M1840.22,-191.47C1851.73,-188.83 1863.15,-185.85 1874,-182.5 1884.82,-179.16 1896.23,-174.42 1906.3,-169.78"/>
<polygon fill="black" stroke="black" points="1907.94,-172.88 1915.46,-165.42 1904.93,-166.56 1907.94,-172.88"/>
</g>
<!-- 124305316558832 -->
<g id="node18" class="node">
<title>124305316558832</title>
<polygon fill="none" stroke="black" points="1571.5,-136.5 1571.5,-172.5 1871.5,-172.5 1871.5,-136.5 1571.5,-136.5"/>
<text text-anchor="middle" x="1613.5" y="-150.8" font-family="Times,serif" font-size="14.00">data: &#45;1.0</text>
<polyline fill="none" stroke="black" points="1655.5,-136.5 1655.5,-172.5 "/>
<text text-anchor="middle" x="1763.5" y="-150.8" font-family="Times,serif" font-size="14.00">grad: 0.1464466094067262</text>
</g>
<!-- 124305316558832&#45;&gt;124305316559024* -->
<g id="edge20" class="edge">
<title>124305316558832&#45;&gt;124305316559024*</title>
<path fill="none" stroke="black" d="M1871.57,-154.5C1881.81,-154.5 1891.44,-154.5 1899.98,-154.5"/>
<polygon fill="black" stroke="black" points="1900.18,-158 1910.18,-154.5 1900.18,-151 1900.18,-158"/>
</g>
<!-- 124305316414848 -->
<g id="node19" class="node">
<title>124305316414848</title>
<polygon fill="none" stroke="black" points="3552.6,-57.5 3552.6,-93.5 3974.6,-93.5 3974.6,-57.5 3552.6,-57.5"/>
<text text-anchor="middle" x="3660.1" y="-71.8" font-family="Times,serif" font-size="14.00">data: 0.1464466094067262</text>
<polyline fill="none" stroke="black" points="3767.6,-57.5 3767.6,-93.5 "/>
<text text-anchor="middle" x="3871.1" y="-71.8" font-family="Times,serif" font-size="14.00">grad: 4.828427124746192</text>
</g>
<!-- 124305316414848&#45;&gt;124305316415904* -->
<g id="edge14" class="edge">
<title>124305316414848&#45;&gt;124305316415904*</title>
<path fill="none" stroke="black" d="M3974.87,-93.28C3984.19,-94.07 3992.84,-94.8 4000.54,-95.45"/>
<polygon fill="black" stroke="black" points="4000.49,-98.96 4010.75,-96.31 4001.08,-91.98 4000.49,-98.96"/>
</g>
<!-- 124305316414848**&#45;1&#45;&gt;124305316414848 -->
<g id="edge7" class="edge">
<title>124305316414848**&#45;1&#45;&gt;124305316414848</title>
<path fill="none" stroke="black" d="M3334.43,-71.74C3376.52,-72.11 3460.2,-72.85 3542.5,-73.57"/>
<polygon fill="black" stroke="black" points="3542.5,-77.07 3552.53,-73.66 3542.56,-70.07 3542.5,-77.07"/>
</g>
<!-- 124305321323920 -->
<g id="node21" class="node">
<title>124305321323920</title>
<polygon fill="none" stroke="black" points="2,-110.5 2,-146.5 201,-146.5 201,-110.5 2,-110.5"/>
<text text-anchor="middle" x="21" y="-124.8" font-family="Times,serif" font-size="14.00">w2</text>
<polyline fill="none" stroke="black" points="40,-110.5 40,-146.5 "/>
<text text-anchor="middle" x="80" y="-124.8" font-family="Times,serif" font-size="14.00">data: 1.0</text>
<polyline fill="none" stroke="black" points="120,-110.5 120,-146.5 "/>
<text text-anchor="middle" x="160.5" y="-124.8" font-family="Times,serif" font-size="14.00">grad: 0.0</text>
</g>
<!-- 124305321323920&#45;&gt;124305321483424* -->
<g id="edge31" class="edge">
<title>124305321323920&#45;&gt;124305321483424*</title>
<path fill="none" stroke="black" d="M201.24,-128.5C210.96,-128.5 220.33,-128.5 228.76,-128.5"/>
<polygon fill="black" stroke="black" points="228.88,-132 238.88,-128.5 228.88,-125 228.88,-132"/>
</g>
<!-- 124305316574688 -->
<g id="node22" class="node">
<title>124305316574688</title>
<polygon fill="none" stroke="black" points="2093.6,-26.5 2093.6,-62.5 2403.6,-62.5 2403.6,-26.5 2093.6,-26.5"/>
<text text-anchor="middle" x="2133.6" y="-40.8" font-family="Times,serif" font-size="14.00">data: 1.0</text>
<polyline fill="none" stroke="black" points="2173.6,-26.5 2173.6,-62.5 "/>
<text text-anchor="middle" x="2288.6" y="-40.8" font-family="Times,serif" font-size="14.00">grad: &#45;0.10355339059327374</text>
</g>
<!-- 124305316574688&#45;&gt;124305316575312+ -->
<g id="edge21" class="edge">
<title>124305316574688&#45;&gt;124305316575312+</title>
<path fill="none" stroke="black" d="M2403.64,-57.96C2448.07,-61.84 2492.55,-65.73 2522.39,-68.34"/>
<polygon fill="black" stroke="black" points="2522.42,-71.85 2532.69,-69.24 2523.03,-64.88 2522.42,-71.85"/>
</g>
<!-- 124305321481792 -->
<g id="node23" class="node">
<title>124305321481792</title>
<polygon fill="none" stroke="black" points="329,-55.5 329,-91.5 556,-91.5 556,-55.5 329,-55.5"/>
<text text-anchor="middle" x="360" y="-69.8" font-family="Times,serif" font-size="14.00">x1*w1</text>
<polyline fill="none" stroke="black" points="391,-55.5 391,-91.5 "/>
<text text-anchor="middle" x="433" y="-69.8" font-family="Times,serif" font-size="14.00">data: &#45;6.0</text>
<polyline fill="none" stroke="black" points="475,-55.5 475,-91.5 "/>
<text text-anchor="middle" x="515.5" y="-69.8" font-family="Times,serif" font-size="14.00">grad: 0.5</text>
</g>
<!-- 124305321481792&#45;&gt;124305316329408+ -->
<g id="edge19" class="edge">
<title>124305321481792&#45;&gt;124305316329408+</title>
<path fill="none" stroke="black" d="M556.48,-90.98C565.77,-92.42 574.64,-93.79 582.6,-95.02"/>
<polygon fill="black" stroke="black" points="582.09,-98.49 592.51,-96.56 583.16,-91.57 582.09,-98.49"/>
</g>
<!-- 124305321481792*&#45;&gt;124305321481792 -->
<g id="edge8" class="edge">
<title>124305321481792*&#45;&gt;124305321481792</title>
<path fill="none" stroke="black" d="M293.12,-73.5C300.67,-73.5 309.45,-73.5 318.9,-73.5"/>
<polygon fill="black" stroke="black" points="318.95,-77 328.95,-73.5 318.95,-70 318.95,-77"/>
</g>
<!-- 124305316384336 -->
<g id="node25" class="node">
<title>124305316384336</title>
<polygon fill="none" stroke="black" points="2000.6,-81.5 2000.6,-117.5 2496.6,-117.5 2496.6,-81.5 2000.6,-81.5"/>
<text text-anchor="middle" x="2033.1" y="-95.8" font-family="Times,serif" font-size="14.00">e^(2n)</text>
<polyline fill="none" stroke="black" points="2065.6,-81.5 2065.6,-117.5 "/>
<text text-anchor="middle" x="2168.6" y="-95.8" font-family="Times,serif" font-size="14.00">data: 5.828427124746192</text>
<polyline fill="none" stroke="black" points="2271.6,-81.5 2271.6,-117.5 "/>
<text text-anchor="middle" x="2384.1" y="-95.8" font-family="Times,serif" font-size="14.00">grad: 0.04289321881345247</text>
</g>
<!-- 124305316384336&#45;&gt;124305316575312+ -->
<g id="edge28" class="edge">
<title>124305316384336&#45;&gt;124305316575312+</title>
<path fill="none" stroke="black" d="M2448.35,-81.49C2476.75,-78.92 2502.97,-76.54 2522.71,-74.75"/>
<polygon fill="black" stroke="black" points="2523.06,-78.23 2532.7,-73.85 2522.43,-71.26 2523.06,-78.23"/>
</g>
<!-- 124305316384336&#45;&gt;124305316559744+ -->
<g id="edge26" class="edge">
<title>124305316384336&#45;&gt;124305316559744+</title>
<path fill="none" stroke="black" d="M2455.7,-117.51C2481.13,-119.73 2504.44,-121.77 2522.43,-123.34"/>
<polygon fill="black" stroke="black" points="2522.37,-126.85 2532.64,-124.23 2522.98,-119.87 2522.37,-126.85"/>
</g>
<!-- 124305316384336exp -->
<g id="node26" class="node">
<title>124305316384336exp</title>
<ellipse fill="none" stroke="black" cx="1937.3" cy="-99.5" rx="27.1" ry="18"/>
<text text-anchor="middle" x="1937.3" y="-95.8" font-family="Times,serif" font-size="14.00">exp</text>
</g>
<!-- 124305316384336exp&#45;&gt;124305316384336 -->
<g id="edge9" class="edge">
<title>124305316384336exp&#45;&gt;124305316384336</title>
<path fill="none" stroke="black" d="M1964.67,-99.5C1971.99,-99.5 1980.58,-99.5 1990.13,-99.5"/>
<polygon fill="black" stroke="black" points="1990.42,-103 2000.42,-99.5 1990.42,-96 1990.42,-103"/>
</g>
<!-- 124305316382416 -->
<g id="node27" class="node">
<title>124305316382416</title>
<polygon fill="none" stroke="black" points="1134,-54.5 1134,-90.5 1430,-90.5 1430,-54.5 1134,-54.5"/>
<text text-anchor="middle" x="1174" y="-68.8" font-family="Times,serif" font-size="14.00">data: 2.0</text>
<polyline fill="none" stroke="black" points="1214,-54.5 1214,-90.5 "/>
<text text-anchor="middle" x="1322" y="-68.8" font-family="Times,serif" font-size="14.00">grad: 0.2203433967548858</text>
</g>
<!-- 124305316382416&#45;&gt;124305316382704* -->
<g id="edge18" class="edge">
<title>124305316382416&#45;&gt;124305316382704*</title>
<path fill="none" stroke="black" d="M1430.15,-90.4C1444.4,-92.13 1457.76,-93.75 1469.13,-95.14"/>
<polygon fill="black" stroke="black" points="1469.04,-98.65 1479.39,-96.39 1469.89,-91.7 1469.04,-98.65"/>
</g>
<!-- 124305316329408 -->
<g id="node28" class="node">
<title>124305316329408</title>
<polygon fill="none" stroke="black" points="756,-82.5 756,-118.5 921,-118.5 921,-82.5 756,-82.5"/>
<text text-anchor="middle" x="798" y="-96.8" font-family="Times,serif" font-size="14.00">data: &#45;6.0</text>
<polyline fill="none" stroke="black" points="840,-82.5 840,-118.5 "/>
<text text-anchor="middle" x="880.5" y="-96.8" font-family="Times,serif" font-size="14.00">grad: 0.5</text>
</g>
<!-- 124305316329408&#45;&gt;124305316330368+ -->
<g id="edge25" class="edge">
<title>124305316329408&#45;&gt;124305316330368+</title>
<path fill="none" stroke="black" d="M921.11,-110.63C955.59,-114.91 993.95,-119.67 1021.1,-123.04"/>
<polygon fill="black" stroke="black" points="1020.93,-126.55 1031.29,-124.31 1021.79,-119.6 1020.93,-126.55"/>
</g>
<!-- 124305316329408+&#45;&gt;124305316329408 -->
<g id="edge10" class="edge">
<title>124305316329408+&#45;&gt;124305316329408</title>
<path fill="none" stroke="black" d="M646.24,-100.5C671.02,-100.5 709.68,-100.5 745.77,-100.5"/>
<polygon fill="black" stroke="black" points="745.87,-104 755.87,-100.5 745.87,-97 745.87,-104"/>
</g>
<!-- 124305316382704 -->
<g id="node30" class="node">
<title>124305316382704</title>
<polygon fill="none" stroke="black" points="1569,-81.5 1569,-117.5 1874,-117.5 1874,-81.5 1569,-81.5"/>
<text text-anchor="middle" x="1676.5" y="-95.8" font-family="Times,serif" font-size="14.00">data: 1.7627471740390863</text>
<polyline fill="none" stroke="black" points="1784,-81.5 1784,-117.5 "/>
<text text-anchor="middle" x="1829" y="-95.8" font-family="Times,serif" font-size="14.00">grad: 0.25</text>
</g>
<!-- 124305316382704&#45;&gt;124305316384336exp -->
<g id="edge23" class="edge">
<title>124305316382704&#45;&gt;124305316384336exp</title>
<path fill="none" stroke="black" d="M1874.17,-99.5C1883.37,-99.5 1892.03,-99.5 1899.8,-99.5"/>
<polygon fill="black" stroke="black" points="1899.81,-103 1909.81,-99.5 1899.81,-96 1899.81,-103"/>
</g>
<!-- 124305316382704*&#45;&gt;124305316382704 -->
<g id="edge11" class="edge">
<title>124305316382704*&#45;&gt;124305316382704</title>
<path fill="none" stroke="black" d="M1533.18,-99.5C1540.62,-99.5 1549.3,-99.5 1558.78,-99.5"/>
<polygon fill="black" stroke="black" points="1558.93,-103 1568.93,-99.5 1558.93,-96 1558.93,-103"/>
</g>
</g>
</svg>
